%TF.GenerationSoftware,KiCad,Pcbnew,(5.1.9-0-10_14)*%
%TF.CreationDate,2021-05-24T21:49:32+02:00*%
%TF.ProjectId,MFM-Module-SEN0313,4d464d2d-4d6f-4647-956c-652d53454e30,rev?*%
%TF.SameCoordinates,PX82714f8PY6141b48*%
%TF.FileFunction,Soldermask,Top*%
%TF.FilePolarity,Negative*%
%FSLAX46Y46*%
G04 Gerber Fmt 4.6, Leading zero omitted, Abs format (unit mm)*
G04 Created by KiCad (PCBNEW (5.1.9-0-10_14)) date 2021-05-24 21:49:32*
%MOMM*%
%LPD*%
G01*
G04 APERTURE LIST*
%ADD10R,1.700000X1.700000*%
%ADD11O,1.700000X1.700000*%
%ADD12O,1.700000X1.950000*%
%ADD13R,0.900000X0.800000*%
%ADD14O,1.200000X1.750000*%
%ADD15R,1.500000X2.000000*%
G04 APERTURE END LIST*
D10*
%TO.C,J1*%
X2349500Y19875500D03*
D11*
X2349500Y22415500D03*
X4889500Y19875500D03*
X4889500Y22415500D03*
X7429500Y19875500D03*
X7429500Y22415500D03*
%TD*%
%TO.C,C1*%
G36*
G01*
X22546500Y17798500D02*
X23046500Y17798500D01*
G75*
G02*
X23271500Y17573500I0J-225000D01*
G01*
X23271500Y17123500D01*
G75*
G02*
X23046500Y16898500I-225000J0D01*
G01*
X22546500Y16898500D01*
G75*
G02*
X22321500Y17123500I0J225000D01*
G01*
X22321500Y17573500D01*
G75*
G02*
X22546500Y17798500I225000J0D01*
G01*
G37*
G36*
G01*
X22546500Y16248500D02*
X23046500Y16248500D01*
G75*
G02*
X23271500Y16023500I0J-225000D01*
G01*
X23271500Y15573500D01*
G75*
G02*
X23046500Y15348500I-225000J0D01*
G01*
X22546500Y15348500D01*
G75*
G02*
X22321500Y15573500I0J225000D01*
G01*
X22321500Y16023500D01*
G75*
G02*
X22546500Y16248500I225000J0D01*
G01*
G37*
%TD*%
%TO.C,R1*%
G36*
G01*
X40785500Y14054500D02*
X40785500Y13504500D01*
G75*
G02*
X40585500Y13304500I-200000J0D01*
G01*
X40185500Y13304500D01*
G75*
G02*
X39985500Y13504500I0J200000D01*
G01*
X39985500Y14054500D01*
G75*
G02*
X40185500Y14254500I200000J0D01*
G01*
X40585500Y14254500D01*
G75*
G02*
X40785500Y14054500I0J-200000D01*
G01*
G37*
G36*
G01*
X39135500Y14054500D02*
X39135500Y13504500D01*
G75*
G02*
X38935500Y13304500I-200000J0D01*
G01*
X38535500Y13304500D01*
G75*
G02*
X38335500Y13504500I0J200000D01*
G01*
X38335500Y14054500D01*
G75*
G02*
X38535500Y14254500I200000J0D01*
G01*
X38935500Y14254500D01*
G75*
G02*
X39135500Y14054500I0J-200000D01*
G01*
G37*
%TD*%
%TO.C,J6*%
G36*
G01*
X35157001Y9244500D02*
X35157001Y10694500D01*
G75*
G02*
X35407001Y10944500I250000J0D01*
G01*
X36607001Y10944500D01*
G75*
G02*
X36857001Y10694500I0J-250000D01*
G01*
X36857001Y9244500D01*
G75*
G02*
X36607001Y8994500I-250000J0D01*
G01*
X35407001Y8994500D01*
G75*
G02*
X35157001Y9244500I0J250000D01*
G01*
G37*
D12*
X38507001Y9969500D03*
X41007001Y9969500D03*
%TD*%
%TO.C,U1*%
G36*
G01*
X21230000Y15961500D02*
X21230000Y15661500D01*
G75*
G02*
X21080000Y15511500I-150000J0D01*
G01*
X19430000Y15511500D01*
G75*
G02*
X19280000Y15661500I0J150000D01*
G01*
X19280000Y15961500D01*
G75*
G02*
X19430000Y16111500I150000J0D01*
G01*
X21080000Y16111500D01*
G75*
G02*
X21230000Y15961500I0J-150000D01*
G01*
G37*
G36*
G01*
X21230000Y17231500D02*
X21230000Y16931500D01*
G75*
G02*
X21080000Y16781500I-150000J0D01*
G01*
X19430000Y16781500D01*
G75*
G02*
X19280000Y16931500I0J150000D01*
G01*
X19280000Y17231500D01*
G75*
G02*
X19430000Y17381500I150000J0D01*
G01*
X21080000Y17381500D01*
G75*
G02*
X21230000Y17231500I0J-150000D01*
G01*
G37*
G36*
G01*
X21230000Y18501500D02*
X21230000Y18201500D01*
G75*
G02*
X21080000Y18051500I-150000J0D01*
G01*
X19430000Y18051500D01*
G75*
G02*
X19280000Y18201500I0J150000D01*
G01*
X19280000Y18501500D01*
G75*
G02*
X19430000Y18651500I150000J0D01*
G01*
X21080000Y18651500D01*
G75*
G02*
X21230000Y18501500I0J-150000D01*
G01*
G37*
G36*
G01*
X21230000Y19771500D02*
X21230000Y19471500D01*
G75*
G02*
X21080000Y19321500I-150000J0D01*
G01*
X19430000Y19321500D01*
G75*
G02*
X19280000Y19471500I0J150000D01*
G01*
X19280000Y19771500D01*
G75*
G02*
X19430000Y19921500I150000J0D01*
G01*
X21080000Y19921500D01*
G75*
G02*
X21230000Y19771500I0J-150000D01*
G01*
G37*
G36*
G01*
X21230000Y21041500D02*
X21230000Y20741500D01*
G75*
G02*
X21080000Y20591500I-150000J0D01*
G01*
X19430000Y20591500D01*
G75*
G02*
X19280000Y20741500I0J150000D01*
G01*
X19280000Y21041500D01*
G75*
G02*
X19430000Y21191500I150000J0D01*
G01*
X21080000Y21191500D01*
G75*
G02*
X21230000Y21041500I0J-150000D01*
G01*
G37*
G36*
G01*
X21230000Y22311500D02*
X21230000Y22011500D01*
G75*
G02*
X21080000Y21861500I-150000J0D01*
G01*
X19430000Y21861500D01*
G75*
G02*
X19280000Y22011500I0J150000D01*
G01*
X19280000Y22311500D01*
G75*
G02*
X19430000Y22461500I150000J0D01*
G01*
X21080000Y22461500D01*
G75*
G02*
X21230000Y22311500I0J-150000D01*
G01*
G37*
G36*
G01*
X21230000Y23581500D02*
X21230000Y23281500D01*
G75*
G02*
X21080000Y23131500I-150000J0D01*
G01*
X19430000Y23131500D01*
G75*
G02*
X19280000Y23281500I0J150000D01*
G01*
X19280000Y23581500D01*
G75*
G02*
X19430000Y23731500I150000J0D01*
G01*
X21080000Y23731500D01*
G75*
G02*
X21230000Y23581500I0J-150000D01*
G01*
G37*
G36*
G01*
X16280000Y23581500D02*
X16280000Y23281500D01*
G75*
G02*
X16130000Y23131500I-150000J0D01*
G01*
X14480000Y23131500D01*
G75*
G02*
X14330000Y23281500I0J150000D01*
G01*
X14330000Y23581500D01*
G75*
G02*
X14480000Y23731500I150000J0D01*
G01*
X16130000Y23731500D01*
G75*
G02*
X16280000Y23581500I0J-150000D01*
G01*
G37*
G36*
G01*
X16280000Y22311500D02*
X16280000Y22011500D01*
G75*
G02*
X16130000Y21861500I-150000J0D01*
G01*
X14480000Y21861500D01*
G75*
G02*
X14330000Y22011500I0J150000D01*
G01*
X14330000Y22311500D01*
G75*
G02*
X14480000Y22461500I150000J0D01*
G01*
X16130000Y22461500D01*
G75*
G02*
X16280000Y22311500I0J-150000D01*
G01*
G37*
G36*
G01*
X16280000Y21041500D02*
X16280000Y20741500D01*
G75*
G02*
X16130000Y20591500I-150000J0D01*
G01*
X14480000Y20591500D01*
G75*
G02*
X14330000Y20741500I0J150000D01*
G01*
X14330000Y21041500D01*
G75*
G02*
X14480000Y21191500I150000J0D01*
G01*
X16130000Y21191500D01*
G75*
G02*
X16280000Y21041500I0J-150000D01*
G01*
G37*
G36*
G01*
X16280000Y19771500D02*
X16280000Y19471500D01*
G75*
G02*
X16130000Y19321500I-150000J0D01*
G01*
X14480000Y19321500D01*
G75*
G02*
X14330000Y19471500I0J150000D01*
G01*
X14330000Y19771500D01*
G75*
G02*
X14480000Y19921500I150000J0D01*
G01*
X16130000Y19921500D01*
G75*
G02*
X16280000Y19771500I0J-150000D01*
G01*
G37*
G36*
G01*
X16280000Y18501500D02*
X16280000Y18201500D01*
G75*
G02*
X16130000Y18051500I-150000J0D01*
G01*
X14480000Y18051500D01*
G75*
G02*
X14330000Y18201500I0J150000D01*
G01*
X14330000Y18501500D01*
G75*
G02*
X14480000Y18651500I150000J0D01*
G01*
X16130000Y18651500D01*
G75*
G02*
X16280000Y18501500I0J-150000D01*
G01*
G37*
G36*
G01*
X16280000Y17231500D02*
X16280000Y16931500D01*
G75*
G02*
X16130000Y16781500I-150000J0D01*
G01*
X14480000Y16781500D01*
G75*
G02*
X14330000Y16931500I0J150000D01*
G01*
X14330000Y17231500D01*
G75*
G02*
X14480000Y17381500I150000J0D01*
G01*
X16130000Y17381500D01*
G75*
G02*
X16280000Y17231500I0J-150000D01*
G01*
G37*
G36*
G01*
X16280000Y15961500D02*
X16280000Y15661500D01*
G75*
G02*
X16130000Y15511500I-150000J0D01*
G01*
X14480000Y15511500D01*
G75*
G02*
X14330000Y15661500I0J150000D01*
G01*
X14330000Y15961500D01*
G75*
G02*
X14480000Y16111500I150000J0D01*
G01*
X16130000Y16111500D01*
G75*
G02*
X16280000Y15961500I0J-150000D01*
G01*
G37*
%TD*%
D13*
%TO.C,Q1*%
X34030501Y17655999D03*
X32030501Y16705999D03*
X32030501Y18605999D03*
%TD*%
%TO.C,Q2*%
X35893500Y18603000D03*
X35893500Y16703000D03*
X37893500Y17653000D03*
%TD*%
%TO.C,R2*%
G36*
G01*
X29951000Y18878000D02*
X30501000Y18878000D01*
G75*
G02*
X30701000Y18678000I0J-200000D01*
G01*
X30701000Y18278000D01*
G75*
G02*
X30501000Y18078000I-200000J0D01*
G01*
X29951000Y18078000D01*
G75*
G02*
X29751000Y18278000I0J200000D01*
G01*
X29751000Y18678000D01*
G75*
G02*
X29951000Y18878000I200000J0D01*
G01*
G37*
G36*
G01*
X29951000Y17228000D02*
X30501000Y17228000D01*
G75*
G02*
X30701000Y17028000I0J-200000D01*
G01*
X30701000Y16628000D01*
G75*
G02*
X30501000Y16428000I-200000J0D01*
G01*
X29951000Y16428000D01*
G75*
G02*
X29751000Y16628000I0J200000D01*
G01*
X29751000Y17028000D01*
G75*
G02*
X29951000Y17228000I200000J0D01*
G01*
G37*
%TD*%
%TO.C,R3*%
G36*
G01*
X33445000Y20235500D02*
X33445000Y20785500D01*
G75*
G02*
X33645000Y20985500I200000J0D01*
G01*
X34045000Y20985500D01*
G75*
G02*
X34245000Y20785500I0J-200000D01*
G01*
X34245000Y20235500D01*
G75*
G02*
X34045000Y20035500I-200000J0D01*
G01*
X33645000Y20035500D01*
G75*
G02*
X33445000Y20235500I0J200000D01*
G01*
G37*
G36*
G01*
X31795000Y20235500D02*
X31795000Y20785500D01*
G75*
G02*
X31995000Y20985500I200000J0D01*
G01*
X32395000Y20985500D01*
G75*
G02*
X32595000Y20785500I0J-200000D01*
G01*
X32595000Y20235500D01*
G75*
G02*
X32395000Y20035500I-200000J0D01*
G01*
X31995000Y20035500D01*
G75*
G02*
X31795000Y20235500I0J200000D01*
G01*
G37*
%TD*%
%TO.C,R4*%
G36*
G01*
X38118500Y20785500D02*
X38118500Y20235500D01*
G75*
G02*
X37918500Y20035500I-200000J0D01*
G01*
X37518500Y20035500D01*
G75*
G02*
X37318500Y20235500I0J200000D01*
G01*
X37318500Y20785500D01*
G75*
G02*
X37518500Y20985500I200000J0D01*
G01*
X37918500Y20985500D01*
G75*
G02*
X38118500Y20785500I0J-200000D01*
G01*
G37*
G36*
G01*
X36468500Y20785500D02*
X36468500Y20235500D01*
G75*
G02*
X36268500Y20035500I-200000J0D01*
G01*
X35868500Y20035500D01*
G75*
G02*
X35668500Y20235500I0J200000D01*
G01*
X35668500Y20785500D01*
G75*
G02*
X35868500Y20985500I200000J0D01*
G01*
X36268500Y20985500D01*
G75*
G02*
X36468500Y20785500I0J-200000D01*
G01*
G37*
%TD*%
%TO.C,J3*%
G36*
G01*
X22957001Y6385498D02*
X22957001Y7635500D01*
G75*
G02*
X23207000Y7885499I249999J0D01*
G01*
X23907002Y7885499D01*
G75*
G02*
X24157001Y7635500I0J-249999D01*
G01*
X24157001Y6385498D01*
G75*
G02*
X23907002Y6135499I-249999J0D01*
G01*
X23207000Y6135499D01*
G75*
G02*
X22957001Y6385498I0J249999D01*
G01*
G37*
D14*
X25557001Y7010499D03*
X27557001Y7010499D03*
X29557001Y7010499D03*
%TD*%
D10*
%TO.C,J2*%
X4064000Y15062200D03*
D11*
X4064000Y12522200D03*
X4064000Y9982200D03*
%TD*%
D10*
%TO.C,J4*%
X45974000Y15062200D03*
D11*
X45974000Y12522200D03*
X45974000Y9982200D03*
%TD*%
D15*
%TO.C,SW1*%
X11620500Y15013500D03*
X11620500Y23213500D03*
%TD*%
D10*
%TO.C,J5*%
X30226000Y22987000D03*
D11*
X32766000Y22987000D03*
X35306000Y22987000D03*
X37846000Y22987000D03*
X40386000Y22987000D03*
X42926000Y22987000D03*
%TD*%
M02*
