%TF.GenerationSoftware,KiCad,Pcbnew,(5.1.9-0-10_14)*%
%TF.CreationDate,2021-05-24T21:49:32+02:00*%
%TF.ProjectId,MFM-Module-SEN0313,4d464d2d-4d6f-4647-956c-652d53454e30,rev?*%
%TF.SameCoordinates,PX82714f8PY6141b48*%
%TF.FileFunction,Soldermask,Bot*%
%TF.FilePolarity,Negative*%
%FSLAX46Y46*%
G04 Gerber Fmt 4.6, Leading zero omitted, Abs format (unit mm)*
G04 Created by KiCad (PCBNEW (5.1.9-0-10_14)) date 2021-05-24 21:49:32*
%MOMM*%
%LPD*%
G01*
G04 APERTURE LIST*
%ADD10R,1.700000X1.700000*%
%ADD11O,1.700000X1.700000*%
%ADD12O,1.700000X1.950000*%
%ADD13O,1.200000X1.750000*%
G04 APERTURE END LIST*
D10*
%TO.C,J1*%
X2349500Y19875500D03*
D11*
X2349500Y22415500D03*
X4889500Y19875500D03*
X4889500Y22415500D03*
X7429500Y19875500D03*
X7429500Y22415500D03*
%TD*%
%TO.C,J6*%
G36*
G01*
X35157001Y9244500D02*
X35157001Y10694500D01*
G75*
G02*
X35407001Y10944500I250000J0D01*
G01*
X36607001Y10944500D01*
G75*
G02*
X36857001Y10694500I0J-250000D01*
G01*
X36857001Y9244500D01*
G75*
G02*
X36607001Y8994500I-250000J0D01*
G01*
X35407001Y8994500D01*
G75*
G02*
X35157001Y9244500I0J250000D01*
G01*
G37*
D12*
X38507001Y9969500D03*
X41007001Y9969500D03*
%TD*%
%TO.C,J3*%
G36*
G01*
X22957001Y6385498D02*
X22957001Y7635500D01*
G75*
G02*
X23207000Y7885499I249999J0D01*
G01*
X23907002Y7885499D01*
G75*
G02*
X24157001Y7635500I0J-249999D01*
G01*
X24157001Y6385498D01*
G75*
G02*
X23907002Y6135499I-249999J0D01*
G01*
X23207000Y6135499D01*
G75*
G02*
X22957001Y6385498I0J249999D01*
G01*
G37*
D13*
X25557001Y7010499D03*
X27557001Y7010499D03*
X29557001Y7010499D03*
%TD*%
D10*
%TO.C,J2*%
X4064000Y15062200D03*
D11*
X4064000Y12522200D03*
X4064000Y9982200D03*
%TD*%
D10*
%TO.C,J4*%
X45974000Y15062200D03*
D11*
X45974000Y12522200D03*
X45974000Y9982200D03*
%TD*%
D10*
%TO.C,J5*%
X30226000Y22987000D03*
D11*
X32766000Y22987000D03*
X35306000Y22987000D03*
X37846000Y22987000D03*
X40386000Y22987000D03*
X42926000Y22987000D03*
%TD*%
M02*
