M48
; DRILL file {KiCad (5.1.9-0-10_14)} date Monday, May 24, 2021 at 09:49:08 PM
; FORMAT={3:3/ absolute / metric / suppress leading zeros}
; #@! TF.CreationDate,2021-05-24T21:49:08+02:00
; #@! TF.GenerationSoftware,Kicad,Pcbnew,(5.1.9-0-10_14)
FMAT,2
METRIC,TZ
T1C0.300
T2C0.350
T3C0.750
T4C0.950
T5C1.000
%
G90
G05
T1
X13001Y23372
X15304Y14986
X22796Y18144
X32067Y15811
X34671Y20511
T2
X24194Y18923
X27178Y18987
T3
X23557Y7010
X25557Y7010
X27557Y7010
X29557Y7010
T4
X36007Y9970
X38507Y9970
X41007Y9970
T5
X2350Y22415
X2350Y19876
X4064Y15062
X4064Y12522
X4064Y9982
X4889Y22415
X4889Y19876
X7430Y22415
X7430Y19876
X30226Y22987
X32766Y22987
X35306Y22987
X37846Y22987
X40386Y22987
X42926Y22987
X45974Y15062
X45974Y12522
X45974Y9982
T0
M30
