%TF.GenerationSoftware,KiCad,Pcbnew,(5.1.9-0-10_14)*%
%TF.CreationDate,2021-05-24T21:49:32+02:00*%
%TF.ProjectId,MFM-Module-SEN0313,4d464d2d-4d6f-4647-956c-652d53454e30,rev?*%
%TF.SameCoordinates,PX82714f8PY6141b48*%
%TF.FileFunction,Copper,L1,Top*%
%TF.FilePolarity,Positive*%
%FSLAX46Y46*%
G04 Gerber Fmt 4.6, Leading zero omitted, Abs format (unit mm)*
G04 Created by KiCad (PCBNEW (5.1.9-0-10_14)) date 2021-05-24 21:49:32*
%MOMM*%
%LPD*%
G01*
G04 APERTURE LIST*
%TA.AperFunction,ComponentPad*%
%ADD10R,1.700000X1.700000*%
%TD*%
%TA.AperFunction,ComponentPad*%
%ADD11O,1.700000X1.700000*%
%TD*%
%TA.AperFunction,ComponentPad*%
%ADD12O,1.700000X1.950000*%
%TD*%
%TA.AperFunction,SMDPad,CuDef*%
%ADD13R,0.900000X0.800000*%
%TD*%
%TA.AperFunction,ComponentPad*%
%ADD14O,1.200000X1.750000*%
%TD*%
%TA.AperFunction,SMDPad,CuDef*%
%ADD15R,1.500000X2.000000*%
%TD*%
%TA.AperFunction,ViaPad*%
%ADD16C,0.600000*%
%TD*%
%TA.AperFunction,Conductor*%
%ADD17C,0.500000*%
%TD*%
%TA.AperFunction,Conductor*%
%ADD18C,0.300000*%
%TD*%
%TA.AperFunction,Conductor*%
%ADD19C,0.150000*%
%TD*%
G04 APERTURE END LIST*
D10*
%TO.P,J1,1*%
%TO.N,RESET*%
X2349500Y19875500D03*
D11*
%TO.P,J1,2*%
%TO.N,+3V3*%
X2349500Y22415500D03*
%TO.P,J1,3*%
%TO.N,N/C*%
X4889500Y19875500D03*
%TO.P,J1,4*%
X4889500Y22415500D03*
%TO.P,J1,5*%
X7429500Y19875500D03*
%TO.P,J1,6*%
%TO.N,GND*%
X7429500Y22415500D03*
%TD*%
%TO.P,C1,1*%
%TO.N,GND*%
%TA.AperFunction,SMDPad,CuDef*%
G36*
G01*
X22546500Y17798500D02*
X23046500Y17798500D01*
G75*
G02*
X23271500Y17573500I0J-225000D01*
G01*
X23271500Y17123500D01*
G75*
G02*
X23046500Y16898500I-225000J0D01*
G01*
X22546500Y16898500D01*
G75*
G02*
X22321500Y17123500I0J225000D01*
G01*
X22321500Y17573500D01*
G75*
G02*
X22546500Y17798500I225000J0D01*
G01*
G37*
%TD.AperFunction*%
%TO.P,C1,2*%
%TO.N,+3V3*%
%TA.AperFunction,SMDPad,CuDef*%
G36*
G01*
X22546500Y16248500D02*
X23046500Y16248500D01*
G75*
G02*
X23271500Y16023500I0J-225000D01*
G01*
X23271500Y15573500D01*
G75*
G02*
X23046500Y15348500I-225000J0D01*
G01*
X22546500Y15348500D01*
G75*
G02*
X22321500Y15573500I0J225000D01*
G01*
X22321500Y16023500D01*
G75*
G02*
X22546500Y16248500I225000J0D01*
G01*
G37*
%TD.AperFunction*%
%TD*%
%TO.P,R1,1*%
%TO.N,+3V3*%
%TA.AperFunction,SMDPad,CuDef*%
G36*
G01*
X40785500Y14054500D02*
X40785500Y13504500D01*
G75*
G02*
X40585500Y13304500I-200000J0D01*
G01*
X40185500Y13304500D01*
G75*
G02*
X39985500Y13504500I0J200000D01*
G01*
X39985500Y14054500D01*
G75*
G02*
X40185500Y14254500I200000J0D01*
G01*
X40585500Y14254500D01*
G75*
G02*
X40785500Y14054500I0J-200000D01*
G01*
G37*
%TD.AperFunction*%
%TO.P,R1,2*%
%TO.N,ONEWIRE*%
%TA.AperFunction,SMDPad,CuDef*%
G36*
G01*
X39135500Y14054500D02*
X39135500Y13504500D01*
G75*
G02*
X38935500Y13304500I-200000J0D01*
G01*
X38535500Y13304500D01*
G75*
G02*
X38335500Y13504500I0J200000D01*
G01*
X38335500Y14054500D01*
G75*
G02*
X38535500Y14254500I200000J0D01*
G01*
X38935500Y14254500D01*
G75*
G02*
X39135500Y14054500I0J-200000D01*
G01*
G37*
%TD.AperFunction*%
%TD*%
%TO.P,J6,1*%
%TO.N,GND*%
%TA.AperFunction,ComponentPad*%
G36*
G01*
X35157001Y9244500D02*
X35157001Y10694500D01*
G75*
G02*
X35407001Y10944500I250000J0D01*
G01*
X36607001Y10944500D01*
G75*
G02*
X36857001Y10694500I0J-250000D01*
G01*
X36857001Y9244500D01*
G75*
G02*
X36607001Y8994500I-250000J0D01*
G01*
X35407001Y8994500D01*
G75*
G02*
X35157001Y9244500I0J250000D01*
G01*
G37*
%TD.AperFunction*%
D12*
%TO.P,J6,2*%
%TO.N,ONEWIRE*%
X38507001Y9969500D03*
%TO.P,J6,3*%
%TO.N,+3V3_SW*%
X41007001Y9969500D03*
%TD*%
%TO.P,U1,1*%
%TO.N,+3V3*%
%TA.AperFunction,SMDPad,CuDef*%
G36*
G01*
X21230000Y15961500D02*
X21230000Y15661500D01*
G75*
G02*
X21080000Y15511500I-150000J0D01*
G01*
X19430000Y15511500D01*
G75*
G02*
X19280000Y15661500I0J150000D01*
G01*
X19280000Y15961500D01*
G75*
G02*
X19430000Y16111500I150000J0D01*
G01*
X21080000Y16111500D01*
G75*
G02*
X21230000Y15961500I0J-150000D01*
G01*
G37*
%TD.AperFunction*%
%TO.P,U1,2*%
%TO.N,N/C*%
%TA.AperFunction,SMDPad,CuDef*%
G36*
G01*
X21230000Y17231500D02*
X21230000Y16931500D01*
G75*
G02*
X21080000Y16781500I-150000J0D01*
G01*
X19430000Y16781500D01*
G75*
G02*
X19280000Y16931500I0J150000D01*
G01*
X19280000Y17231500D01*
G75*
G02*
X19430000Y17381500I150000J0D01*
G01*
X21080000Y17381500D01*
G75*
G02*
X21230000Y17231500I0J-150000D01*
G01*
G37*
%TD.AperFunction*%
%TO.P,U1,3*%
%TO.N,SENSORS_ON*%
%TA.AperFunction,SMDPad,CuDef*%
G36*
G01*
X21230000Y18501500D02*
X21230000Y18201500D01*
G75*
G02*
X21080000Y18051500I-150000J0D01*
G01*
X19430000Y18051500D01*
G75*
G02*
X19280000Y18201500I0J150000D01*
G01*
X19280000Y18501500D01*
G75*
G02*
X19430000Y18651500I150000J0D01*
G01*
X21080000Y18651500D01*
G75*
G02*
X21230000Y18501500I0J-150000D01*
G01*
G37*
%TD.AperFunction*%
%TO.P,U1,4*%
%TO.N,SMBALERT*%
%TA.AperFunction,SMDPad,CuDef*%
G36*
G01*
X21230000Y19771500D02*
X21230000Y19471500D01*
G75*
G02*
X21080000Y19321500I-150000J0D01*
G01*
X19430000Y19321500D01*
G75*
G02*
X19280000Y19471500I0J150000D01*
G01*
X19280000Y19771500D01*
G75*
G02*
X19430000Y19921500I150000J0D01*
G01*
X21080000Y19921500D01*
G75*
G02*
X21230000Y19771500I0J-150000D01*
G01*
G37*
%TD.AperFunction*%
%TO.P,U1,5*%
%TO.N,ONEWIRE*%
%TA.AperFunction,SMDPad,CuDef*%
G36*
G01*
X21230000Y21041500D02*
X21230000Y20741500D01*
G75*
G02*
X21080000Y20591500I-150000J0D01*
G01*
X19430000Y20591500D01*
G75*
G02*
X19280000Y20741500I0J150000D01*
G01*
X19280000Y21041500D01*
G75*
G02*
X19430000Y21191500I150000J0D01*
G01*
X21080000Y21191500D01*
G75*
G02*
X21230000Y21041500I0J-150000D01*
G01*
G37*
%TD.AperFunction*%
%TO.P,U1,6*%
%TO.N,MCU_RX*%
%TA.AperFunction,SMDPad,CuDef*%
G36*
G01*
X21230000Y22311500D02*
X21230000Y22011500D01*
G75*
G02*
X21080000Y21861500I-150000J0D01*
G01*
X19430000Y21861500D01*
G75*
G02*
X19280000Y22011500I0J150000D01*
G01*
X19280000Y22311500D01*
G75*
G02*
X19430000Y22461500I150000J0D01*
G01*
X21080000Y22461500D01*
G75*
G02*
X21230000Y22311500I0J-150000D01*
G01*
G37*
%TD.AperFunction*%
%TO.P,U1,7*%
%TO.N,MCU_TX*%
%TA.AperFunction,SMDPad,CuDef*%
G36*
G01*
X21230000Y23581500D02*
X21230000Y23281500D01*
G75*
G02*
X21080000Y23131500I-150000J0D01*
G01*
X19430000Y23131500D01*
G75*
G02*
X19280000Y23281500I0J150000D01*
G01*
X19280000Y23581500D01*
G75*
G02*
X19430000Y23731500I150000J0D01*
G01*
X21080000Y23731500D01*
G75*
G02*
X21230000Y23581500I0J-150000D01*
G01*
G37*
%TD.AperFunction*%
%TO.P,U1,8*%
%TO.N,I2C_SDA*%
%TA.AperFunction,SMDPad,CuDef*%
G36*
G01*
X16280000Y23581500D02*
X16280000Y23281500D01*
G75*
G02*
X16130000Y23131500I-150000J0D01*
G01*
X14480000Y23131500D01*
G75*
G02*
X14330000Y23281500I0J150000D01*
G01*
X14330000Y23581500D01*
G75*
G02*
X14480000Y23731500I150000J0D01*
G01*
X16130000Y23731500D01*
G75*
G02*
X16280000Y23581500I0J-150000D01*
G01*
G37*
%TD.AperFunction*%
%TO.P,U1,9*%
%TO.N,I2C_SCL*%
%TA.AperFunction,SMDPad,CuDef*%
G36*
G01*
X16280000Y22311500D02*
X16280000Y22011500D01*
G75*
G02*
X16130000Y21861500I-150000J0D01*
G01*
X14480000Y21861500D01*
G75*
G02*
X14330000Y22011500I0J150000D01*
G01*
X14330000Y22311500D01*
G75*
G02*
X14480000Y22461500I150000J0D01*
G01*
X16130000Y22461500D01*
G75*
G02*
X16280000Y22311500I0J-150000D01*
G01*
G37*
%TD.AperFunction*%
%TO.P,U1,10*%
%TO.N,RESET*%
%TA.AperFunction,SMDPad,CuDef*%
G36*
G01*
X16280000Y21041500D02*
X16280000Y20741500D01*
G75*
G02*
X16130000Y20591500I-150000J0D01*
G01*
X14480000Y20591500D01*
G75*
G02*
X14330000Y20741500I0J150000D01*
G01*
X14330000Y21041500D01*
G75*
G02*
X14480000Y21191500I150000J0D01*
G01*
X16130000Y21191500D01*
G75*
G02*
X16280000Y21041500I0J-150000D01*
G01*
G37*
%TD.AperFunction*%
%TO.P,U1,11*%
%TO.N,N/C*%
%TA.AperFunction,SMDPad,CuDef*%
G36*
G01*
X16280000Y19771500D02*
X16280000Y19471500D01*
G75*
G02*
X16130000Y19321500I-150000J0D01*
G01*
X14480000Y19321500D01*
G75*
G02*
X14330000Y19471500I0J150000D01*
G01*
X14330000Y19771500D01*
G75*
G02*
X14480000Y19921500I150000J0D01*
G01*
X16130000Y19921500D01*
G75*
G02*
X16280000Y19771500I0J-150000D01*
G01*
G37*
%TD.AperFunction*%
%TO.P,U1,12*%
%TO.N,MCU_RX_DEBUG*%
%TA.AperFunction,SMDPad,CuDef*%
G36*
G01*
X16280000Y18501500D02*
X16280000Y18201500D01*
G75*
G02*
X16130000Y18051500I-150000J0D01*
G01*
X14480000Y18051500D01*
G75*
G02*
X14330000Y18201500I0J150000D01*
G01*
X14330000Y18501500D01*
G75*
G02*
X14480000Y18651500I150000J0D01*
G01*
X16130000Y18651500D01*
G75*
G02*
X16280000Y18501500I0J-150000D01*
G01*
G37*
%TD.AperFunction*%
%TO.P,U1,13*%
%TO.N,MCU_TX_DEBUG*%
%TA.AperFunction,SMDPad,CuDef*%
G36*
G01*
X16280000Y17231500D02*
X16280000Y16931500D01*
G75*
G02*
X16130000Y16781500I-150000J0D01*
G01*
X14480000Y16781500D01*
G75*
G02*
X14330000Y16931500I0J150000D01*
G01*
X14330000Y17231500D01*
G75*
G02*
X14480000Y17381500I150000J0D01*
G01*
X16130000Y17381500D01*
G75*
G02*
X16280000Y17231500I0J-150000D01*
G01*
G37*
%TD.AperFunction*%
%TO.P,U1,14*%
%TO.N,GND*%
%TA.AperFunction,SMDPad,CuDef*%
G36*
G01*
X16280000Y15961500D02*
X16280000Y15661500D01*
G75*
G02*
X16130000Y15511500I-150000J0D01*
G01*
X14480000Y15511500D01*
G75*
G02*
X14330000Y15661500I0J150000D01*
G01*
X14330000Y15961500D01*
G75*
G02*
X14480000Y16111500I150000J0D01*
G01*
X16130000Y16111500D01*
G75*
G02*
X16280000Y15961500I0J-150000D01*
G01*
G37*
%TD.AperFunction*%
%TD*%
D13*
%TO.P,Q1,3*%
%TO.N,Net-(Q1-Pad3)*%
X34030501Y17655999D03*
%TO.P,Q1,2*%
%TO.N,GND*%
X32030501Y16705999D03*
%TO.P,Q1,1*%
%TO.N,Net-(Q1-Pad1)*%
X32030501Y18605999D03*
%TD*%
%TO.P,Q2,1*%
%TO.N,Net-(Q1-Pad3)*%
X35893500Y18603000D03*
%TO.P,Q2,2*%
%TO.N,+3V3*%
X35893500Y16703000D03*
%TO.P,Q2,3*%
%TO.N,+3V3_SW*%
X37893500Y17653000D03*
%TD*%
%TO.P,R2,1*%
%TO.N,Net-(Q1-Pad1)*%
%TA.AperFunction,SMDPad,CuDef*%
G36*
G01*
X29951000Y18878000D02*
X30501000Y18878000D01*
G75*
G02*
X30701000Y18678000I0J-200000D01*
G01*
X30701000Y18278000D01*
G75*
G02*
X30501000Y18078000I-200000J0D01*
G01*
X29951000Y18078000D01*
G75*
G02*
X29751000Y18278000I0J200000D01*
G01*
X29751000Y18678000D01*
G75*
G02*
X29951000Y18878000I200000J0D01*
G01*
G37*
%TD.AperFunction*%
%TO.P,R2,2*%
%TO.N,SENSORS_ON*%
%TA.AperFunction,SMDPad,CuDef*%
G36*
G01*
X29951000Y17228000D02*
X30501000Y17228000D01*
G75*
G02*
X30701000Y17028000I0J-200000D01*
G01*
X30701000Y16628000D01*
G75*
G02*
X30501000Y16428000I-200000J0D01*
G01*
X29951000Y16428000D01*
G75*
G02*
X29751000Y16628000I0J200000D01*
G01*
X29751000Y17028000D01*
G75*
G02*
X29951000Y17228000I200000J0D01*
G01*
G37*
%TD.AperFunction*%
%TD*%
%TO.P,R3,2*%
%TO.N,GND*%
%TA.AperFunction,SMDPad,CuDef*%
G36*
G01*
X33445000Y20235500D02*
X33445000Y20785500D01*
G75*
G02*
X33645000Y20985500I200000J0D01*
G01*
X34045000Y20985500D01*
G75*
G02*
X34245000Y20785500I0J-200000D01*
G01*
X34245000Y20235500D01*
G75*
G02*
X34045000Y20035500I-200000J0D01*
G01*
X33645000Y20035500D01*
G75*
G02*
X33445000Y20235500I0J200000D01*
G01*
G37*
%TD.AperFunction*%
%TO.P,R3,1*%
%TO.N,Net-(Q1-Pad1)*%
%TA.AperFunction,SMDPad,CuDef*%
G36*
G01*
X31795000Y20235500D02*
X31795000Y20785500D01*
G75*
G02*
X31995000Y20985500I200000J0D01*
G01*
X32395000Y20985500D01*
G75*
G02*
X32595000Y20785500I0J-200000D01*
G01*
X32595000Y20235500D01*
G75*
G02*
X32395000Y20035500I-200000J0D01*
G01*
X31995000Y20035500D01*
G75*
G02*
X31795000Y20235500I0J200000D01*
G01*
G37*
%TD.AperFunction*%
%TD*%
%TO.P,R4,1*%
%TO.N,+3V3*%
%TA.AperFunction,SMDPad,CuDef*%
G36*
G01*
X38118500Y20785500D02*
X38118500Y20235500D01*
G75*
G02*
X37918500Y20035500I-200000J0D01*
G01*
X37518500Y20035500D01*
G75*
G02*
X37318500Y20235500I0J200000D01*
G01*
X37318500Y20785500D01*
G75*
G02*
X37518500Y20985500I200000J0D01*
G01*
X37918500Y20985500D01*
G75*
G02*
X38118500Y20785500I0J-200000D01*
G01*
G37*
%TD.AperFunction*%
%TO.P,R4,2*%
%TO.N,Net-(Q1-Pad3)*%
%TA.AperFunction,SMDPad,CuDef*%
G36*
G01*
X36468500Y20785500D02*
X36468500Y20235500D01*
G75*
G02*
X36268500Y20035500I-200000J0D01*
G01*
X35868500Y20035500D01*
G75*
G02*
X35668500Y20235500I0J200000D01*
G01*
X35668500Y20785500D01*
G75*
G02*
X35868500Y20985500I200000J0D01*
G01*
X36268500Y20985500D01*
G75*
G02*
X36468500Y20785500I0J-200000D01*
G01*
G37*
%TD.AperFunction*%
%TD*%
%TO.P,J3,1*%
%TO.N,+3V3_SW*%
%TA.AperFunction,ComponentPad*%
G36*
G01*
X22957001Y6385498D02*
X22957001Y7635500D01*
G75*
G02*
X23207000Y7885499I249999J0D01*
G01*
X23907002Y7885499D01*
G75*
G02*
X24157001Y7635500I0J-249999D01*
G01*
X24157001Y6385498D01*
G75*
G02*
X23907002Y6135499I-249999J0D01*
G01*
X23207000Y6135499D01*
G75*
G02*
X22957001Y6385498I0J249999D01*
G01*
G37*
%TD.AperFunction*%
D14*
%TO.P,J3,2*%
%TO.N,GND*%
X25557001Y7010499D03*
%TO.P,J3,3*%
%TO.N,MCU_TX*%
X27557001Y7010499D03*
%TO.P,J3,4*%
%TO.N,MCU_RX*%
X29557001Y7010499D03*
%TD*%
D10*
%TO.P,J2,1*%
%TO.N,I2C_SCL*%
X4064000Y15062200D03*
D11*
%TO.P,J2,2*%
%TO.N,I2C_SDA*%
X4064000Y12522200D03*
%TO.P,J2,3*%
%TO.N,SMBALERT*%
X4064000Y9982200D03*
%TD*%
D10*
%TO.P,J4,1*%
%TO.N,+3V3*%
X45974000Y15062200D03*
D11*
%TO.P,J4,2*%
%TO.N,N/C*%
X45974000Y12522200D03*
%TO.P,J4,3*%
%TO.N,GND*%
X45974000Y9982200D03*
%TD*%
D15*
%TO.P,SW1,1*%
%TO.N,RESET*%
X11620500Y15013500D03*
%TO.P,SW1,2*%
%TO.N,GND*%
X11620500Y23213500D03*
%TD*%
D10*
%TO.P,J5,1*%
%TO.N,N/C*%
X30226000Y22987000D03*
D11*
%TO.P,J5,2*%
%TO.N,MCU_TX_DEBUG*%
X32766000Y22987000D03*
%TO.P,J5,3*%
%TO.N,MCU_RX_DEBUG*%
X35306000Y22987000D03*
%TO.P,J5,4*%
%TO.N,N/C*%
X37846000Y22987000D03*
%TO.P,J5,5*%
X40386000Y22987000D03*
%TO.P,J5,6*%
%TO.N,GND*%
X42926000Y22987000D03*
%TD*%
D16*
%TO.N,GND*%
X15303500Y14986000D03*
X32067500Y15811500D03*
X34671000Y20510500D03*
X22796500Y18143990D03*
X13000912Y23371888D03*
%TO.N,SENSORS_ON*%
X24193500Y18923000D03*
X27178006Y18986500D03*
%TD*%
D17*
%TO.N,GND*%
X33845000Y20510500D02*
X34671000Y20510500D01*
X32067500Y16669000D02*
X32030501Y16705999D01*
X32067500Y15811500D02*
X32067500Y16669000D01*
X22796500Y17348500D02*
X22796500Y18143990D01*
X15303500Y15810000D02*
X15305000Y15811500D01*
X15303500Y14986000D02*
X15303500Y15810000D01*
X11747500Y23284000D02*
X12913024Y23284000D01*
X12913024Y23284000D02*
X13000912Y23371888D01*
D18*
%TO.N,+3V3*%
X20331500Y15798500D02*
X20318500Y15811500D01*
X20268000Y15798500D02*
X20255000Y15811500D01*
X22783500Y15811500D02*
X22796500Y15798500D01*
X20255000Y15811500D02*
X22783500Y15811500D01*
X36643501Y19435501D02*
X37718500Y20510500D01*
X36643501Y17453001D02*
X36643501Y19435501D01*
X35893500Y16703000D02*
X36643501Y17453001D01*
X41668200Y15062200D02*
X40385500Y13779500D01*
X45974000Y15062200D02*
X41668200Y15062200D01*
X20255000Y6859500D02*
X23685500Y3429000D01*
X43307000Y3429000D02*
X48260000Y8382000D01*
X48260000Y8382000D02*
X48260000Y17335500D01*
X45085000Y20510500D02*
X37718500Y20510500D01*
X48260000Y17335500D02*
X45085000Y20510500D01*
X23685500Y3429000D02*
X43307000Y3429000D01*
X20255000Y15811500D02*
X20255000Y6859500D01*
X40385500Y13779500D02*
X38417000Y15748000D01*
X36848500Y15748000D02*
X35893500Y16703000D01*
X38417000Y15748000D02*
X36848500Y15748000D01*
X37718500Y20510500D02*
X37655500Y20510500D01*
X36880490Y21285510D02*
X25132990Y21285510D01*
X37655500Y20510500D02*
X36880490Y21285510D01*
X21849991Y24568509D02*
X19116914Y24568509D01*
X25132990Y21285510D02*
X21849991Y24568509D01*
X2349500Y22415500D02*
X4508500Y24574500D01*
X19110923Y24574500D02*
X19116914Y24568509D01*
X4508500Y24574500D02*
X19110923Y24574500D01*
D19*
%TO.N,SMBALERT*%
X12907989Y13923989D02*
X8966200Y9982200D01*
X16637000Y18986500D02*
X14244221Y18986500D01*
X8966200Y9982200D02*
X4064000Y9982200D01*
X17272000Y19621500D02*
X16637000Y18986500D01*
X12907989Y17650268D02*
X12907989Y13923989D01*
X14244221Y18986500D02*
X12907989Y17650268D01*
X20255000Y19621500D02*
X17272000Y19621500D01*
%TO.N,I2C_SDA*%
X2159000Y14427200D02*
X4064000Y12522200D01*
X2921000Y16827500D02*
X2159000Y16065500D01*
X7429500Y16827500D02*
X2921000Y16827500D01*
X14033500Y23431500D02*
X7429500Y16827500D01*
X2159000Y16065500D02*
X2159000Y14427200D01*
X15305000Y23431500D02*
X14033500Y23431500D01*
%TO.N,I2C_SCL*%
X6870700Y15062200D02*
X4064000Y15062200D01*
X13970000Y22161500D02*
X6870700Y15062200D01*
X15305000Y22161500D02*
X13970000Y22161500D01*
%TO.N,RESET*%
X14605000Y20891500D02*
X11620500Y17907000D01*
X15305000Y20891500D02*
X14605000Y20891500D01*
X11620500Y17907000D02*
X11620500Y15013500D01*
X11620500Y14795500D02*
X11620500Y15013500D01*
X8064500Y11239500D02*
X11620500Y14795500D01*
X3175000Y11239500D02*
X8064500Y11239500D01*
X1270000Y13144500D02*
X3175000Y11239500D01*
X1270000Y18796000D02*
X1270000Y13144500D01*
X2349500Y19875500D02*
X1270000Y18796000D01*
%TO.N,MCU_TX*%
X27557001Y7010499D02*
X27557001Y17342718D01*
X27557001Y17342718D02*
X21468219Y23431500D01*
X21468219Y23431500D02*
X20255000Y23431500D01*
%TO.N,MCU_RX*%
X27199130Y5588000D02*
X26543000Y6244130D01*
X29557001Y7010499D02*
X28134502Y5588000D01*
X26543000Y6244130D02*
X26543000Y17414004D01*
X28134502Y5588000D02*
X27199130Y5588000D01*
X21795504Y22161500D02*
X20255000Y22161500D01*
X26543000Y17414004D02*
X21795504Y22161500D01*
%TO.N,ONEWIRE*%
X38735500Y10197999D02*
X38507001Y9969500D01*
X38735500Y13779500D02*
X38735500Y10197999D01*
X21193998Y24130000D02*
X31544498Y13779500D01*
X31544498Y13779500D02*
X38735500Y13779500D01*
X18923000Y21082000D02*
X18923000Y23844250D01*
X18923000Y23844250D02*
X19208750Y24130000D01*
X20318500Y20891500D02*
X19113500Y20891500D01*
X19208750Y24130000D02*
X21193998Y24130000D01*
X19113500Y20891500D02*
X18923000Y21082000D01*
%TO.N,Net-(Q1-Pad3)*%
X35893500Y20335500D02*
X36068500Y20510500D01*
X35893500Y18603000D02*
X35893500Y20335500D01*
X34977502Y18603000D02*
X34030501Y17655999D01*
X35893500Y18603000D02*
X34977502Y18603000D01*
%TO.N,Net-(Q1-Pad1)*%
X32195000Y18770498D02*
X32030501Y18605999D01*
X32195000Y20510500D02*
X32195000Y18770498D01*
X31902502Y18478000D02*
X32030501Y18605999D01*
X30226000Y18478000D02*
X31902502Y18478000D01*
%TO.N,SENSORS_ON*%
X29336506Y16828000D02*
X27178006Y18986500D01*
X30226000Y16828000D02*
X29336506Y16828000D01*
X22415500Y18923000D02*
X24193500Y18923000D01*
X21844000Y18351500D02*
X22415500Y18923000D01*
X20255000Y18351500D02*
X21844000Y18351500D01*
D18*
%TO.N,+3V3_SW*%
X41007001Y9955501D02*
X41007001Y9969500D01*
X35687000Y4635500D02*
X41007001Y9955501D01*
X25932000Y4635500D02*
X35687000Y4635500D01*
X23557001Y7010499D02*
X25932000Y4635500D01*
X42144302Y8832199D02*
X41007001Y9969500D01*
X47124001Y9430199D02*
X46526001Y8832199D01*
X47124001Y16152201D02*
X47124001Y9430199D01*
X37893500Y17653000D02*
X45623202Y17653000D01*
X46526001Y8832199D02*
X42144302Y8832199D01*
X45623202Y17653000D02*
X47124001Y16152201D01*
D19*
%TO.N,MCU_TX_DEBUG*%
X44704000Y21780500D02*
X33972500Y21780500D01*
X48895000Y17589500D02*
X44704000Y21780500D01*
X48895000Y8255000D02*
X48895000Y17589500D01*
X43497500Y2857500D02*
X48895000Y8255000D01*
X22860000Y2857500D02*
X43497500Y2857500D01*
X13652500Y16764000D02*
X13652500Y12065000D01*
X13652500Y12065000D02*
X22860000Y2857500D01*
X33972500Y21780500D02*
X32766000Y22987000D01*
X13970000Y17081500D02*
X13652500Y16764000D01*
X15305000Y17081500D02*
X13970000Y17081500D01*
%TO.N,MCU_RX_DEBUG*%
X14033500Y18351500D02*
X15305000Y18351500D01*
X13208000Y17526000D02*
X14033500Y18351500D01*
X22669500Y2413000D02*
X13208000Y11874500D01*
X13208000Y11874500D02*
X13208000Y17526000D01*
X43688000Y2413000D02*
X22669500Y2413000D01*
X36576000Y24257000D02*
X43688000Y24257000D01*
X43688000Y24257000D02*
X49339500Y18605500D01*
X49339500Y18605500D02*
X49339500Y8064500D01*
X49339500Y8064500D02*
X43688000Y2413000D01*
X35306000Y22987000D02*
X36576000Y24257000D01*
%TD*%
M02*
