%TF.GenerationSoftware,KiCad,Pcbnew,(5.1.9-0-10_14)*%
%TF.CreationDate,2021-05-08T21:12:27+02:00*%
%TF.ProjectId,MFM-Module-SEN0313,4d464d2d-4d6f-4647-956c-652d53454e30,rev?*%
%TF.SameCoordinates,PX82714f8PY6141b48*%
%TF.FileFunction,Copper,L2,Bot*%
%TF.FilePolarity,Positive*%
%FSLAX46Y46*%
G04 Gerber Fmt 4.6, Leading zero omitted, Abs format (unit mm)*
G04 Created by KiCad (PCBNEW (5.1.9-0-10_14)) date 2021-05-08 21:12:27*
%MOMM*%
%LPD*%
G01*
G04 APERTURE LIST*
%TA.AperFunction,ComponentPad*%
%ADD10O,1.700000X1.700000*%
%TD*%
%TA.AperFunction,ComponentPad*%
%ADD11R,1.700000X1.700000*%
%TD*%
%TA.AperFunction,ComponentPad*%
%ADD12O,1.200000X1.750000*%
%TD*%
%TA.AperFunction,ComponentPad*%
%ADD13O,1.700000X1.950000*%
%TD*%
%TA.AperFunction,ViaPad*%
%ADD14C,0.600000*%
%TD*%
%TA.AperFunction,Conductor*%
%ADD15C,0.150000*%
%TD*%
%TA.AperFunction,Conductor*%
%ADD16C,0.254000*%
%TD*%
%TA.AperFunction,Conductor*%
%ADD17C,0.100000*%
%TD*%
G04 APERTURE END LIST*
D10*
%TO.P,J2,4*%
%TO.N,+3V3*%
X45974000Y15049500D03*
%TO.P,J2,5*%
%TO.N,N/C*%
X45974000Y12509500D03*
%TO.P,J2,6*%
%TO.N,GND*%
X45974000Y9969500D03*
%TO.P,J2,3*%
%TO.N,SMBALERT*%
X4064000Y9969500D03*
%TO.P,J2,2*%
%TO.N,I2C_SDA*%
X4064000Y12509500D03*
D11*
%TO.P,J2,1*%
%TO.N,I2C_SCL*%
X4064000Y15049500D03*
%TD*%
%TO.P,J1,1*%
%TO.N,RESET*%
X2349500Y19875500D03*
D10*
%TO.P,J1,2*%
%TO.N,+3V3*%
X2349500Y22415500D03*
%TO.P,J1,3*%
%TO.N,SCK*%
X4889500Y19875500D03*
%TO.P,J1,4*%
%TO.N,MOSI*%
X4889500Y22415500D03*
%TO.P,J1,5*%
%TO.N,MISO*%
X7429500Y19875500D03*
%TO.P,J1,6*%
%TO.N,GND*%
X7429500Y22415500D03*
%TD*%
D12*
%TO.P,J3,4*%
%TO.N,+3V3_SW*%
X23557001Y8851999D03*
%TO.P,J3,3*%
%TO.N,GND*%
X25557001Y8851999D03*
%TO.P,J3,2*%
%TO.N,MCU_TX*%
X27557001Y8851999D03*
%TO.P,J3,1*%
%TO.N,MCU_RX*%
%TA.AperFunction,ComponentPad*%
G36*
G01*
X28957001Y8276999D02*
X28957001Y9426999D01*
G75*
G02*
X29257001Y9726999I300000J0D01*
G01*
X29857001Y9726999D01*
G75*
G02*
X30157001Y9426999I0J-300000D01*
G01*
X30157001Y8276999D01*
G75*
G02*
X29857001Y7976999I-300000J0D01*
G01*
X29257001Y7976999D01*
G75*
G02*
X28957001Y8276999I0J300000D01*
G01*
G37*
%TD.AperFunction*%
%TD*%
%TO.P,U2,1*%
%TO.N,GND*%
%TA.AperFunction,ComponentPad*%
G36*
G01*
X35157001Y9244500D02*
X35157001Y10694500D01*
G75*
G02*
X35407001Y10944500I250000J0D01*
G01*
X36607001Y10944500D01*
G75*
G02*
X36857001Y10694500I0J-250000D01*
G01*
X36857001Y9244500D01*
G75*
G02*
X36607001Y8994500I-250000J0D01*
G01*
X35407001Y8994500D01*
G75*
G02*
X35157001Y9244500I0J250000D01*
G01*
G37*
%TD.AperFunction*%
D13*
%TO.P,U2,2*%
%TO.N,ONEWIRE*%
X38507001Y9969500D03*
%TO.P,U2,3*%
%TO.N,+3V3_SW*%
X41007001Y9969500D03*
%TD*%
D14*
%TO.N,GND*%
X13843000Y15811500D03*
X13106400Y23266400D03*
X16637000Y15811494D03*
X22796500Y18224500D03*
X33083500Y17526000D03*
X35687000Y22225000D03*
%TO.N,SENSORS_ON*%
X31242000Y15367000D03*
X31242000Y13589000D03*
%TD*%
D15*
%TO.N,SENSORS_ON*%
X31242000Y15367000D02*
X31242000Y13589000D01*
%TD*%
D16*
%TO.N,GND*%
X49636000Y402000D02*
X402000Y402000D01*
X402000Y6843300D01*
X21130001Y6843300D01*
X21130001Y6660698D01*
X21165625Y6481603D01*
X21235505Y6312900D01*
X21336953Y6161071D01*
X21466073Y6031951D01*
X21617902Y5930503D01*
X21786605Y5860623D01*
X21965700Y5824999D01*
X22148302Y5824999D01*
X22327397Y5860623D01*
X22496100Y5930503D01*
X22647929Y6031951D01*
X22777049Y6161071D01*
X22878497Y6312900D01*
X22948377Y6481603D01*
X22984001Y6660698D01*
X22984001Y6843300D01*
X30130001Y6843300D01*
X30130001Y6660698D01*
X30165625Y6481603D01*
X30235505Y6312900D01*
X30336953Y6161071D01*
X30466073Y6031951D01*
X30617902Y5930503D01*
X30786605Y5860623D01*
X30965700Y5824999D01*
X31148302Y5824999D01*
X31327397Y5860623D01*
X31496100Y5930503D01*
X31647929Y6031951D01*
X31777049Y6161071D01*
X31878497Y6312900D01*
X31948377Y6481603D01*
X31984001Y6660698D01*
X31984001Y6843300D01*
X31948377Y7022395D01*
X31878497Y7191098D01*
X31777049Y7342927D01*
X31647929Y7472047D01*
X31496100Y7573495D01*
X31327397Y7643375D01*
X31148302Y7678999D01*
X30965700Y7678999D01*
X30786605Y7643375D01*
X30617902Y7573495D01*
X30466073Y7472047D01*
X30336953Y7342927D01*
X30235505Y7191098D01*
X30165625Y7022395D01*
X30130001Y6843300D01*
X22984001Y6843300D01*
X22948377Y7022395D01*
X22878497Y7191098D01*
X22777049Y7342927D01*
X22647929Y7472047D01*
X22496100Y7573495D01*
X22327397Y7643375D01*
X22148302Y7678999D01*
X21965700Y7678999D01*
X21786605Y7643375D01*
X21617902Y7573495D01*
X21466073Y7472047D01*
X21336953Y7342927D01*
X21235505Y7191098D01*
X21165625Y7022395D01*
X21130001Y6843300D01*
X402000Y6843300D01*
X402000Y10090349D01*
X2837000Y10090349D01*
X2837000Y9848651D01*
X2884153Y9611597D01*
X2976647Y9388298D01*
X3110927Y9187333D01*
X3281833Y9016427D01*
X3482798Y8882147D01*
X3706097Y8789653D01*
X3943151Y8742500D01*
X4184849Y8742500D01*
X4421903Y8789653D01*
X4645202Y8882147D01*
X4846167Y9016427D01*
X5004731Y9174991D01*
X22580001Y9174991D01*
X22580001Y8529006D01*
X22594138Y8385474D01*
X22650004Y8201308D01*
X22740726Y8031581D01*
X22862816Y7882813D01*
X23011584Y7760723D01*
X23181311Y7670002D01*
X23365477Y7614136D01*
X23557001Y7595272D01*
X23748526Y7614136D01*
X23932692Y7670002D01*
X24102419Y7760723D01*
X24251187Y7882813D01*
X24373277Y8031581D01*
X24414000Y8107768D01*
X24464611Y7987053D01*
X24600694Y7785274D01*
X24773527Y7613921D01*
X24976468Y7479578D01*
X25201719Y7387408D01*
X25239392Y7383537D01*
X25430001Y7508268D01*
X25430001Y8724999D01*
X25410001Y8724999D01*
X25410001Y8978999D01*
X25430001Y8978999D01*
X25430001Y10195730D01*
X25684001Y10195730D01*
X25684001Y8978999D01*
X25704001Y8978999D01*
X25704001Y8724999D01*
X25684001Y8724999D01*
X25684001Y7508268D01*
X25874610Y7383537D01*
X25912283Y7387408D01*
X26137534Y7479578D01*
X26340475Y7613921D01*
X26513308Y7785274D01*
X26649391Y7987053D01*
X26700002Y8107769D01*
X26740726Y8031581D01*
X26862816Y7882813D01*
X27011584Y7760723D01*
X27181311Y7670002D01*
X27365477Y7614136D01*
X27557001Y7595272D01*
X27748526Y7614136D01*
X27932692Y7670002D01*
X28102419Y7760723D01*
X28251187Y7882813D01*
X28373277Y8031581D01*
X28463998Y8201308D01*
X28519864Y8385475D01*
X28534001Y8529007D01*
X28534001Y9174992D01*
X28519864Y9318524D01*
X28486959Y9426999D01*
X28578177Y9426999D01*
X28578177Y8276999D01*
X28591220Y8144567D01*
X28629849Y8017224D01*
X28692579Y7899865D01*
X28777000Y7796998D01*
X28879867Y7712577D01*
X28997226Y7649847D01*
X29124569Y7611218D01*
X29257001Y7598175D01*
X29857001Y7598175D01*
X29989433Y7611218D01*
X30116776Y7649847D01*
X30234135Y7712577D01*
X30337002Y7796998D01*
X30421423Y7899865D01*
X30484153Y8017224D01*
X30522782Y8144567D01*
X30535825Y8276999D01*
X30535825Y8994500D01*
X34518929Y8994500D01*
X34531189Y8870018D01*
X34567499Y8750320D01*
X34626464Y8640006D01*
X34705816Y8543315D01*
X34802507Y8463963D01*
X34912821Y8404998D01*
X35032519Y8368688D01*
X35157001Y8356428D01*
X35721251Y8359500D01*
X35880001Y8518250D01*
X35880001Y9842500D01*
X34680751Y9842500D01*
X34522001Y9683750D01*
X34518929Y8994500D01*
X30535825Y8994500D01*
X30535825Y9426999D01*
X30522782Y9559431D01*
X30484153Y9686774D01*
X30421423Y9804133D01*
X30337002Y9907000D01*
X30234135Y9991421D01*
X30116776Y10054151D01*
X29989433Y10092780D01*
X29857001Y10105823D01*
X29257001Y10105823D01*
X29124569Y10092780D01*
X28997226Y10054151D01*
X28879867Y9991421D01*
X28777000Y9907000D01*
X28692579Y9804133D01*
X28629849Y9686774D01*
X28591220Y9559431D01*
X28578177Y9426999D01*
X28486959Y9426999D01*
X28463998Y9502690D01*
X28373277Y9672417D01*
X28251187Y9821185D01*
X28102419Y9943275D01*
X27932691Y10033996D01*
X27748525Y10089862D01*
X27557001Y10108726D01*
X27365476Y10089862D01*
X27181310Y10033996D01*
X27011583Y9943275D01*
X26862815Y9821185D01*
X26740725Y9672417D01*
X26700002Y9596230D01*
X26649391Y9716945D01*
X26513308Y9918724D01*
X26340475Y10090077D01*
X26137534Y10224420D01*
X25912283Y10316590D01*
X25874610Y10320461D01*
X25684001Y10195730D01*
X25430001Y10195730D01*
X25239392Y10320461D01*
X25201719Y10316590D01*
X24976468Y10224420D01*
X24773527Y10090077D01*
X24600694Y9918724D01*
X24464611Y9716945D01*
X24414000Y9596230D01*
X24373277Y9672417D01*
X24251187Y9821185D01*
X24102419Y9943275D01*
X23932691Y10033996D01*
X23748525Y10089862D01*
X23557001Y10108726D01*
X23365476Y10089862D01*
X23181310Y10033996D01*
X23011583Y9943275D01*
X22862815Y9821185D01*
X22740725Y9672417D01*
X22650004Y9502689D01*
X22594138Y9318523D01*
X22580001Y9174991D01*
X5004731Y9174991D01*
X5017073Y9187333D01*
X5151353Y9388298D01*
X5243847Y9611597D01*
X5291000Y9848651D01*
X5291000Y10090349D01*
X5243847Y10327403D01*
X5151353Y10550702D01*
X5017073Y10751667D01*
X4846167Y10922573D01*
X4813351Y10944500D01*
X34518929Y10944500D01*
X34522001Y10255250D01*
X34680751Y10096500D01*
X35880001Y10096500D01*
X35880001Y11420750D01*
X36134001Y11420750D01*
X36134001Y10096500D01*
X36154001Y10096500D01*
X36154001Y9842500D01*
X36134001Y9842500D01*
X36134001Y8518250D01*
X36292751Y8359500D01*
X36857001Y8356428D01*
X36981483Y8368688D01*
X37101181Y8404998D01*
X37211495Y8463963D01*
X37308186Y8543315D01*
X37387538Y8640006D01*
X37446503Y8750320D01*
X37482813Y8870018D01*
X37495073Y8994500D01*
X37494406Y9144221D01*
X37635185Y8972683D01*
X37822019Y8819351D01*
X38035178Y8705416D01*
X38266468Y8635255D01*
X38507001Y8611564D01*
X38747535Y8635255D01*
X38978825Y8705416D01*
X39191984Y8819351D01*
X39378818Y8972683D01*
X39532150Y9159518D01*
X39646085Y9372677D01*
X39716246Y9603967D01*
X39734001Y9784233D01*
X39734001Y10154767D01*
X39780001Y10154767D01*
X39780001Y9784232D01*
X39797756Y9603966D01*
X39867917Y9372676D01*
X39981852Y9159517D01*
X40135185Y8972683D01*
X40322019Y8819351D01*
X40535178Y8705416D01*
X40766468Y8635255D01*
X41007001Y8611564D01*
X41247535Y8635255D01*
X41478825Y8705416D01*
X41691984Y8819351D01*
X41878818Y8972683D01*
X42032150Y9159518D01*
X42146085Y9372677D01*
X42216246Y9603967D01*
X42217097Y9612610D01*
X44532524Y9612610D01*
X44577175Y9465401D01*
X44702359Y9202580D01*
X44876412Y8969231D01*
X45092645Y8774322D01*
X45342748Y8625343D01*
X45617109Y8528019D01*
X45847000Y8648686D01*
X45847000Y9842500D01*
X46101000Y9842500D01*
X46101000Y8648686D01*
X46330891Y8528019D01*
X46605252Y8625343D01*
X46855355Y8774322D01*
X47071588Y8969231D01*
X47245641Y9202580D01*
X47370825Y9465401D01*
X47415476Y9612610D01*
X47294155Y9842500D01*
X46101000Y9842500D01*
X45847000Y9842500D01*
X44653845Y9842500D01*
X44532524Y9612610D01*
X42217097Y9612610D01*
X42234001Y9784233D01*
X42234001Y10154768D01*
X42217098Y10326390D01*
X44532524Y10326390D01*
X44653845Y10096500D01*
X45847000Y10096500D01*
X45847000Y10116500D01*
X46101000Y10116500D01*
X46101000Y10096500D01*
X47294155Y10096500D01*
X47415476Y10326390D01*
X47370825Y10473599D01*
X47245641Y10736420D01*
X47071588Y10969769D01*
X46855355Y11164678D01*
X46605252Y11313657D01*
X46437202Y11373269D01*
X46555202Y11422147D01*
X46756167Y11556427D01*
X46927073Y11727333D01*
X47061353Y11928298D01*
X47153847Y12151597D01*
X47201000Y12388651D01*
X47201000Y12630349D01*
X47153847Y12867403D01*
X47061353Y13090702D01*
X46927073Y13291667D01*
X46756167Y13462573D01*
X46555202Y13596853D01*
X46331903Y13689347D01*
X46094849Y13736500D01*
X45853151Y13736500D01*
X45616097Y13689347D01*
X45392798Y13596853D01*
X45191833Y13462573D01*
X45020927Y13291667D01*
X44886647Y13090702D01*
X44794153Y12867403D01*
X44747000Y12630349D01*
X44747000Y12388651D01*
X44794153Y12151597D01*
X44886647Y11928298D01*
X45020927Y11727333D01*
X45191833Y11556427D01*
X45392798Y11422147D01*
X45510798Y11373269D01*
X45342748Y11313657D01*
X45092645Y11164678D01*
X44876412Y10969769D01*
X44702359Y10736420D01*
X44577175Y10473599D01*
X44532524Y10326390D01*
X42217098Y10326390D01*
X42216246Y10335034D01*
X42146085Y10566324D01*
X42032150Y10779483D01*
X41878818Y10966317D01*
X41691983Y11119649D01*
X41478824Y11233584D01*
X41247534Y11303745D01*
X41007001Y11327436D01*
X40766467Y11303745D01*
X40535177Y11233584D01*
X40322018Y11119649D01*
X40135184Y10966317D01*
X39981852Y10779482D01*
X39867917Y10566323D01*
X39797756Y10335033D01*
X39780001Y10154767D01*
X39734001Y10154767D01*
X39734001Y10154768D01*
X39716246Y10335034D01*
X39646085Y10566324D01*
X39532150Y10779483D01*
X39378818Y10966317D01*
X39191983Y11119649D01*
X38978824Y11233584D01*
X38747534Y11303745D01*
X38507001Y11327436D01*
X38266467Y11303745D01*
X38035177Y11233584D01*
X37822018Y11119649D01*
X37635184Y10966317D01*
X37494406Y10794779D01*
X37495073Y10944500D01*
X37482813Y11068982D01*
X37446503Y11188680D01*
X37387538Y11298994D01*
X37308186Y11395685D01*
X37211495Y11475037D01*
X37101181Y11534002D01*
X36981483Y11570312D01*
X36857001Y11582572D01*
X36292751Y11579500D01*
X36134001Y11420750D01*
X35880001Y11420750D01*
X35721251Y11579500D01*
X35157001Y11582572D01*
X35032519Y11570312D01*
X34912821Y11534002D01*
X34802507Y11475037D01*
X34705816Y11395685D01*
X34626464Y11298994D01*
X34567499Y11188680D01*
X34531189Y11068982D01*
X34518929Y10944500D01*
X4813351Y10944500D01*
X4645202Y11056853D01*
X4421903Y11149347D01*
X4184849Y11196500D01*
X3943151Y11196500D01*
X3706097Y11149347D01*
X3482798Y11056853D01*
X3281833Y10922573D01*
X3110927Y10751667D01*
X2976647Y10550702D01*
X2884153Y10327403D01*
X2837000Y10090349D01*
X402000Y10090349D01*
X402000Y12630349D01*
X2837000Y12630349D01*
X2837000Y12388651D01*
X2884153Y12151597D01*
X2976647Y11928298D01*
X3110927Y11727333D01*
X3281833Y11556427D01*
X3482798Y11422147D01*
X3706097Y11329653D01*
X3943151Y11282500D01*
X4184849Y11282500D01*
X4421903Y11329653D01*
X4645202Y11422147D01*
X4846167Y11556427D01*
X5017073Y11727333D01*
X5151353Y11928298D01*
X5243847Y12151597D01*
X5291000Y12388651D01*
X5291000Y12630349D01*
X5243847Y12867403D01*
X5151353Y13090702D01*
X5017073Y13291667D01*
X4846167Y13462573D01*
X4645202Y13596853D01*
X4421903Y13689347D01*
X4184849Y13736500D01*
X3943151Y13736500D01*
X3706097Y13689347D01*
X3482798Y13596853D01*
X3281833Y13462573D01*
X3110927Y13291667D01*
X2976647Y13090702D01*
X2884153Y12867403D01*
X2837000Y12630349D01*
X402000Y12630349D01*
X402000Y15899500D01*
X2835176Y15899500D01*
X2835176Y14199500D01*
X2842455Y14125595D01*
X2864012Y14054530D01*
X2899019Y13989037D01*
X2946131Y13931631D01*
X3003537Y13884519D01*
X3069030Y13849512D01*
X3140095Y13827955D01*
X3214000Y13820676D01*
X4914000Y13820676D01*
X4987905Y13827955D01*
X5058970Y13849512D01*
X5124463Y13884519D01*
X5181869Y13931631D01*
X5228981Y13989037D01*
X5263988Y14054530D01*
X5285545Y14125595D01*
X5292824Y14199500D01*
X5292824Y15433679D01*
X30565000Y15433679D01*
X30565000Y15300321D01*
X30591016Y15169526D01*
X30642050Y15046320D01*
X30716140Y14935437D01*
X30790000Y14861577D01*
X30790001Y14094424D01*
X30716140Y14020563D01*
X30642050Y13909680D01*
X30591016Y13786474D01*
X30565000Y13655679D01*
X30565000Y13522321D01*
X30591016Y13391526D01*
X30642050Y13268320D01*
X30716140Y13157437D01*
X30810437Y13063140D01*
X30921320Y12989050D01*
X31044526Y12938016D01*
X31175321Y12912000D01*
X31308679Y12912000D01*
X31439474Y12938016D01*
X31562680Y12989050D01*
X31673563Y13063140D01*
X31767860Y13157437D01*
X31841950Y13268320D01*
X31892984Y13391526D01*
X31919000Y13522321D01*
X31919000Y13655679D01*
X31892984Y13786474D01*
X31841950Y13909680D01*
X31767860Y14020563D01*
X31694000Y14094423D01*
X31694000Y14861577D01*
X31767860Y14935437D01*
X31841950Y15046320D01*
X31892984Y15169526D01*
X31893147Y15170349D01*
X44747000Y15170349D01*
X44747000Y14928651D01*
X44794153Y14691597D01*
X44886647Y14468298D01*
X45020927Y14267333D01*
X45191833Y14096427D01*
X45392798Y13962147D01*
X45616097Y13869653D01*
X45853151Y13822500D01*
X46094849Y13822500D01*
X46331903Y13869653D01*
X46555202Y13962147D01*
X46756167Y14096427D01*
X46927073Y14267333D01*
X47061353Y14468298D01*
X47153847Y14691597D01*
X47201000Y14928651D01*
X47201000Y15170349D01*
X47153847Y15407403D01*
X47061353Y15630702D01*
X46927073Y15831667D01*
X46756167Y16002573D01*
X46555202Y16136853D01*
X46331903Y16229347D01*
X46094849Y16276500D01*
X45853151Y16276500D01*
X45616097Y16229347D01*
X45392798Y16136853D01*
X45191833Y16002573D01*
X45020927Y15831667D01*
X44886647Y15630702D01*
X44794153Y15407403D01*
X44747000Y15170349D01*
X31893147Y15170349D01*
X31919000Y15300321D01*
X31919000Y15433679D01*
X31892984Y15564474D01*
X31841950Y15687680D01*
X31767860Y15798563D01*
X31673563Y15892860D01*
X31562680Y15966950D01*
X31439474Y16017984D01*
X31308679Y16044000D01*
X31175321Y16044000D01*
X31044526Y16017984D01*
X30921320Y15966950D01*
X30810437Y15892860D01*
X30716140Y15798563D01*
X30642050Y15687680D01*
X30591016Y15564474D01*
X30565000Y15433679D01*
X5292824Y15433679D01*
X5292824Y15899500D01*
X5285545Y15973405D01*
X5263988Y16044470D01*
X5228981Y16109963D01*
X5181869Y16167369D01*
X5124463Y16214481D01*
X5058970Y16249488D01*
X4987905Y16271045D01*
X4914000Y16278324D01*
X3214000Y16278324D01*
X3140095Y16271045D01*
X3069030Y16249488D01*
X3003537Y16214481D01*
X2946131Y16167369D01*
X2899019Y16109963D01*
X2864012Y16044470D01*
X2842455Y15973405D01*
X2835176Y15899500D01*
X402000Y15899500D01*
X402000Y20725500D01*
X1120676Y20725500D01*
X1120676Y19025500D01*
X1127955Y18951595D01*
X1149512Y18880530D01*
X1184519Y18815037D01*
X1231631Y18757631D01*
X1289037Y18710519D01*
X1354530Y18675512D01*
X1425595Y18653955D01*
X1499500Y18646676D01*
X3199500Y18646676D01*
X3273405Y18653955D01*
X3344470Y18675512D01*
X3409963Y18710519D01*
X3467369Y18757631D01*
X3514481Y18815037D01*
X3549488Y18880530D01*
X3571045Y18951595D01*
X3578324Y19025500D01*
X3578324Y19996349D01*
X3662500Y19996349D01*
X3662500Y19754651D01*
X3709653Y19517597D01*
X3802147Y19294298D01*
X3936427Y19093333D01*
X4107333Y18922427D01*
X4308298Y18788147D01*
X4531597Y18695653D01*
X4768651Y18648500D01*
X5010349Y18648500D01*
X5247403Y18695653D01*
X5470702Y18788147D01*
X5671667Y18922427D01*
X5842573Y19093333D01*
X5976853Y19294298D01*
X6069347Y19517597D01*
X6116500Y19754651D01*
X6116500Y19996349D01*
X6069347Y20233403D01*
X5976853Y20456702D01*
X5842573Y20657667D01*
X5671667Y20828573D01*
X5470702Y20962853D01*
X5247403Y21055347D01*
X5010349Y21102500D01*
X4768651Y21102500D01*
X4531597Y21055347D01*
X4308298Y20962853D01*
X4107333Y20828573D01*
X3936427Y20657667D01*
X3802147Y20456702D01*
X3709653Y20233403D01*
X3662500Y19996349D01*
X3578324Y19996349D01*
X3578324Y20725500D01*
X3571045Y20799405D01*
X3549488Y20870470D01*
X3514481Y20935963D01*
X3467369Y20993369D01*
X3409963Y21040481D01*
X3344470Y21075488D01*
X3273405Y21097045D01*
X3199500Y21104324D01*
X1499500Y21104324D01*
X1425595Y21097045D01*
X1354530Y21075488D01*
X1289037Y21040481D01*
X1231631Y20993369D01*
X1184519Y20935963D01*
X1149512Y20870470D01*
X1127955Y20799405D01*
X1120676Y20725500D01*
X402000Y20725500D01*
X402000Y22536349D01*
X1122500Y22536349D01*
X1122500Y22294651D01*
X1169653Y22057597D01*
X1262147Y21834298D01*
X1396427Y21633333D01*
X1567333Y21462427D01*
X1768298Y21328147D01*
X1991597Y21235653D01*
X2228651Y21188500D01*
X2470349Y21188500D01*
X2707403Y21235653D01*
X2930702Y21328147D01*
X3131667Y21462427D01*
X3302573Y21633333D01*
X3436853Y21834298D01*
X3529347Y22057597D01*
X3576500Y22294651D01*
X3576500Y22536349D01*
X3662500Y22536349D01*
X3662500Y22294651D01*
X3709653Y22057597D01*
X3802147Y21834298D01*
X3936427Y21633333D01*
X4107333Y21462427D01*
X4308298Y21328147D01*
X4531597Y21235653D01*
X4768651Y21188500D01*
X5010349Y21188500D01*
X5247403Y21235653D01*
X5470702Y21328147D01*
X5671667Y21462427D01*
X5842573Y21633333D01*
X5976853Y21834298D01*
X6025731Y21952298D01*
X6085343Y21784248D01*
X6234322Y21534145D01*
X6429231Y21317912D01*
X6662580Y21143859D01*
X6925401Y21018675D01*
X6958688Y21008578D01*
X6848298Y20962853D01*
X6647333Y20828573D01*
X6476427Y20657667D01*
X6342147Y20456702D01*
X6249653Y20233403D01*
X6202500Y19996349D01*
X6202500Y19754651D01*
X6249653Y19517597D01*
X6342147Y19294298D01*
X6476427Y19093333D01*
X6647333Y18922427D01*
X6848298Y18788147D01*
X7071597Y18695653D01*
X7308651Y18648500D01*
X7550349Y18648500D01*
X7787403Y18695653D01*
X8010702Y18788147D01*
X8211667Y18922427D01*
X8382573Y19093333D01*
X8516853Y19294298D01*
X8609347Y19517597D01*
X8656500Y19754651D01*
X8656500Y19996349D01*
X8609347Y20233403D01*
X8516853Y20456702D01*
X8382573Y20657667D01*
X8211667Y20828573D01*
X8010702Y20962853D01*
X7900312Y21008578D01*
X7933599Y21018675D01*
X8196420Y21143859D01*
X8429769Y21317912D01*
X8624678Y21534145D01*
X8773657Y21784248D01*
X8870981Y22058609D01*
X8750314Y22288500D01*
X7556500Y22288500D01*
X7556500Y22268500D01*
X7302500Y22268500D01*
X7302500Y22288500D01*
X7282500Y22288500D01*
X7282500Y22542500D01*
X7302500Y22542500D01*
X7302500Y23735655D01*
X7556500Y23735655D01*
X7556500Y22542500D01*
X8750314Y22542500D01*
X8870981Y22772391D01*
X8773657Y23046752D01*
X8624678Y23296855D01*
X8429769Y23513088D01*
X8196420Y23687141D01*
X7933599Y23812325D01*
X7786390Y23856976D01*
X7556500Y23735655D01*
X7302500Y23735655D01*
X7072610Y23856976D01*
X6925401Y23812325D01*
X6662580Y23687141D01*
X6429231Y23513088D01*
X6234322Y23296855D01*
X6085343Y23046752D01*
X6025731Y22878702D01*
X5976853Y22996702D01*
X5842573Y23197667D01*
X5671667Y23368573D01*
X5470702Y23502853D01*
X5247403Y23595347D01*
X5010349Y23642500D01*
X4768651Y23642500D01*
X4531597Y23595347D01*
X4308298Y23502853D01*
X4107333Y23368573D01*
X3936427Y23197667D01*
X3802147Y22996702D01*
X3709653Y22773403D01*
X3662500Y22536349D01*
X3576500Y22536349D01*
X3529347Y22773403D01*
X3436853Y22996702D01*
X3302573Y23197667D01*
X3131667Y23368573D01*
X2930702Y23502853D01*
X2707403Y23595347D01*
X2470349Y23642500D01*
X2228651Y23642500D01*
X1991597Y23595347D01*
X1768298Y23502853D01*
X1567333Y23368573D01*
X1396427Y23197667D01*
X1262147Y22996702D01*
X1169653Y22773403D01*
X1122500Y22536349D01*
X402000Y22536349D01*
X402000Y24553500D01*
X49636001Y24553500D01*
X49636000Y402000D01*
%TA.AperFunction,Conductor*%
D17*
G36*
X49636000Y402000D02*
G01*
X402000Y402000D01*
X402000Y6843300D01*
X21130001Y6843300D01*
X21130001Y6660698D01*
X21165625Y6481603D01*
X21235505Y6312900D01*
X21336953Y6161071D01*
X21466073Y6031951D01*
X21617902Y5930503D01*
X21786605Y5860623D01*
X21965700Y5824999D01*
X22148302Y5824999D01*
X22327397Y5860623D01*
X22496100Y5930503D01*
X22647929Y6031951D01*
X22777049Y6161071D01*
X22878497Y6312900D01*
X22948377Y6481603D01*
X22984001Y6660698D01*
X22984001Y6843300D01*
X30130001Y6843300D01*
X30130001Y6660698D01*
X30165625Y6481603D01*
X30235505Y6312900D01*
X30336953Y6161071D01*
X30466073Y6031951D01*
X30617902Y5930503D01*
X30786605Y5860623D01*
X30965700Y5824999D01*
X31148302Y5824999D01*
X31327397Y5860623D01*
X31496100Y5930503D01*
X31647929Y6031951D01*
X31777049Y6161071D01*
X31878497Y6312900D01*
X31948377Y6481603D01*
X31984001Y6660698D01*
X31984001Y6843300D01*
X31948377Y7022395D01*
X31878497Y7191098D01*
X31777049Y7342927D01*
X31647929Y7472047D01*
X31496100Y7573495D01*
X31327397Y7643375D01*
X31148302Y7678999D01*
X30965700Y7678999D01*
X30786605Y7643375D01*
X30617902Y7573495D01*
X30466073Y7472047D01*
X30336953Y7342927D01*
X30235505Y7191098D01*
X30165625Y7022395D01*
X30130001Y6843300D01*
X22984001Y6843300D01*
X22948377Y7022395D01*
X22878497Y7191098D01*
X22777049Y7342927D01*
X22647929Y7472047D01*
X22496100Y7573495D01*
X22327397Y7643375D01*
X22148302Y7678999D01*
X21965700Y7678999D01*
X21786605Y7643375D01*
X21617902Y7573495D01*
X21466073Y7472047D01*
X21336953Y7342927D01*
X21235505Y7191098D01*
X21165625Y7022395D01*
X21130001Y6843300D01*
X402000Y6843300D01*
X402000Y10090349D01*
X2837000Y10090349D01*
X2837000Y9848651D01*
X2884153Y9611597D01*
X2976647Y9388298D01*
X3110927Y9187333D01*
X3281833Y9016427D01*
X3482798Y8882147D01*
X3706097Y8789653D01*
X3943151Y8742500D01*
X4184849Y8742500D01*
X4421903Y8789653D01*
X4645202Y8882147D01*
X4846167Y9016427D01*
X5004731Y9174991D01*
X22580001Y9174991D01*
X22580001Y8529006D01*
X22594138Y8385474D01*
X22650004Y8201308D01*
X22740726Y8031581D01*
X22862816Y7882813D01*
X23011584Y7760723D01*
X23181311Y7670002D01*
X23365477Y7614136D01*
X23557001Y7595272D01*
X23748526Y7614136D01*
X23932692Y7670002D01*
X24102419Y7760723D01*
X24251187Y7882813D01*
X24373277Y8031581D01*
X24414000Y8107768D01*
X24464611Y7987053D01*
X24600694Y7785274D01*
X24773527Y7613921D01*
X24976468Y7479578D01*
X25201719Y7387408D01*
X25239392Y7383537D01*
X25430001Y7508268D01*
X25430001Y8724999D01*
X25410001Y8724999D01*
X25410001Y8978999D01*
X25430001Y8978999D01*
X25430001Y10195730D01*
X25684001Y10195730D01*
X25684001Y8978999D01*
X25704001Y8978999D01*
X25704001Y8724999D01*
X25684001Y8724999D01*
X25684001Y7508268D01*
X25874610Y7383537D01*
X25912283Y7387408D01*
X26137534Y7479578D01*
X26340475Y7613921D01*
X26513308Y7785274D01*
X26649391Y7987053D01*
X26700002Y8107769D01*
X26740726Y8031581D01*
X26862816Y7882813D01*
X27011584Y7760723D01*
X27181311Y7670002D01*
X27365477Y7614136D01*
X27557001Y7595272D01*
X27748526Y7614136D01*
X27932692Y7670002D01*
X28102419Y7760723D01*
X28251187Y7882813D01*
X28373277Y8031581D01*
X28463998Y8201308D01*
X28519864Y8385475D01*
X28534001Y8529007D01*
X28534001Y9174992D01*
X28519864Y9318524D01*
X28486959Y9426999D01*
X28578177Y9426999D01*
X28578177Y8276999D01*
X28591220Y8144567D01*
X28629849Y8017224D01*
X28692579Y7899865D01*
X28777000Y7796998D01*
X28879867Y7712577D01*
X28997226Y7649847D01*
X29124569Y7611218D01*
X29257001Y7598175D01*
X29857001Y7598175D01*
X29989433Y7611218D01*
X30116776Y7649847D01*
X30234135Y7712577D01*
X30337002Y7796998D01*
X30421423Y7899865D01*
X30484153Y8017224D01*
X30522782Y8144567D01*
X30535825Y8276999D01*
X30535825Y8994500D01*
X34518929Y8994500D01*
X34531189Y8870018D01*
X34567499Y8750320D01*
X34626464Y8640006D01*
X34705816Y8543315D01*
X34802507Y8463963D01*
X34912821Y8404998D01*
X35032519Y8368688D01*
X35157001Y8356428D01*
X35721251Y8359500D01*
X35880001Y8518250D01*
X35880001Y9842500D01*
X34680751Y9842500D01*
X34522001Y9683750D01*
X34518929Y8994500D01*
X30535825Y8994500D01*
X30535825Y9426999D01*
X30522782Y9559431D01*
X30484153Y9686774D01*
X30421423Y9804133D01*
X30337002Y9907000D01*
X30234135Y9991421D01*
X30116776Y10054151D01*
X29989433Y10092780D01*
X29857001Y10105823D01*
X29257001Y10105823D01*
X29124569Y10092780D01*
X28997226Y10054151D01*
X28879867Y9991421D01*
X28777000Y9907000D01*
X28692579Y9804133D01*
X28629849Y9686774D01*
X28591220Y9559431D01*
X28578177Y9426999D01*
X28486959Y9426999D01*
X28463998Y9502690D01*
X28373277Y9672417D01*
X28251187Y9821185D01*
X28102419Y9943275D01*
X27932691Y10033996D01*
X27748525Y10089862D01*
X27557001Y10108726D01*
X27365476Y10089862D01*
X27181310Y10033996D01*
X27011583Y9943275D01*
X26862815Y9821185D01*
X26740725Y9672417D01*
X26700002Y9596230D01*
X26649391Y9716945D01*
X26513308Y9918724D01*
X26340475Y10090077D01*
X26137534Y10224420D01*
X25912283Y10316590D01*
X25874610Y10320461D01*
X25684001Y10195730D01*
X25430001Y10195730D01*
X25239392Y10320461D01*
X25201719Y10316590D01*
X24976468Y10224420D01*
X24773527Y10090077D01*
X24600694Y9918724D01*
X24464611Y9716945D01*
X24414000Y9596230D01*
X24373277Y9672417D01*
X24251187Y9821185D01*
X24102419Y9943275D01*
X23932691Y10033996D01*
X23748525Y10089862D01*
X23557001Y10108726D01*
X23365476Y10089862D01*
X23181310Y10033996D01*
X23011583Y9943275D01*
X22862815Y9821185D01*
X22740725Y9672417D01*
X22650004Y9502689D01*
X22594138Y9318523D01*
X22580001Y9174991D01*
X5004731Y9174991D01*
X5017073Y9187333D01*
X5151353Y9388298D01*
X5243847Y9611597D01*
X5291000Y9848651D01*
X5291000Y10090349D01*
X5243847Y10327403D01*
X5151353Y10550702D01*
X5017073Y10751667D01*
X4846167Y10922573D01*
X4813351Y10944500D01*
X34518929Y10944500D01*
X34522001Y10255250D01*
X34680751Y10096500D01*
X35880001Y10096500D01*
X35880001Y11420750D01*
X36134001Y11420750D01*
X36134001Y10096500D01*
X36154001Y10096500D01*
X36154001Y9842500D01*
X36134001Y9842500D01*
X36134001Y8518250D01*
X36292751Y8359500D01*
X36857001Y8356428D01*
X36981483Y8368688D01*
X37101181Y8404998D01*
X37211495Y8463963D01*
X37308186Y8543315D01*
X37387538Y8640006D01*
X37446503Y8750320D01*
X37482813Y8870018D01*
X37495073Y8994500D01*
X37494406Y9144221D01*
X37635185Y8972683D01*
X37822019Y8819351D01*
X38035178Y8705416D01*
X38266468Y8635255D01*
X38507001Y8611564D01*
X38747535Y8635255D01*
X38978825Y8705416D01*
X39191984Y8819351D01*
X39378818Y8972683D01*
X39532150Y9159518D01*
X39646085Y9372677D01*
X39716246Y9603967D01*
X39734001Y9784233D01*
X39734001Y10154767D01*
X39780001Y10154767D01*
X39780001Y9784232D01*
X39797756Y9603966D01*
X39867917Y9372676D01*
X39981852Y9159517D01*
X40135185Y8972683D01*
X40322019Y8819351D01*
X40535178Y8705416D01*
X40766468Y8635255D01*
X41007001Y8611564D01*
X41247535Y8635255D01*
X41478825Y8705416D01*
X41691984Y8819351D01*
X41878818Y8972683D01*
X42032150Y9159518D01*
X42146085Y9372677D01*
X42216246Y9603967D01*
X42217097Y9612610D01*
X44532524Y9612610D01*
X44577175Y9465401D01*
X44702359Y9202580D01*
X44876412Y8969231D01*
X45092645Y8774322D01*
X45342748Y8625343D01*
X45617109Y8528019D01*
X45847000Y8648686D01*
X45847000Y9842500D01*
X46101000Y9842500D01*
X46101000Y8648686D01*
X46330891Y8528019D01*
X46605252Y8625343D01*
X46855355Y8774322D01*
X47071588Y8969231D01*
X47245641Y9202580D01*
X47370825Y9465401D01*
X47415476Y9612610D01*
X47294155Y9842500D01*
X46101000Y9842500D01*
X45847000Y9842500D01*
X44653845Y9842500D01*
X44532524Y9612610D01*
X42217097Y9612610D01*
X42234001Y9784233D01*
X42234001Y10154768D01*
X42217098Y10326390D01*
X44532524Y10326390D01*
X44653845Y10096500D01*
X45847000Y10096500D01*
X45847000Y10116500D01*
X46101000Y10116500D01*
X46101000Y10096500D01*
X47294155Y10096500D01*
X47415476Y10326390D01*
X47370825Y10473599D01*
X47245641Y10736420D01*
X47071588Y10969769D01*
X46855355Y11164678D01*
X46605252Y11313657D01*
X46437202Y11373269D01*
X46555202Y11422147D01*
X46756167Y11556427D01*
X46927073Y11727333D01*
X47061353Y11928298D01*
X47153847Y12151597D01*
X47201000Y12388651D01*
X47201000Y12630349D01*
X47153847Y12867403D01*
X47061353Y13090702D01*
X46927073Y13291667D01*
X46756167Y13462573D01*
X46555202Y13596853D01*
X46331903Y13689347D01*
X46094849Y13736500D01*
X45853151Y13736500D01*
X45616097Y13689347D01*
X45392798Y13596853D01*
X45191833Y13462573D01*
X45020927Y13291667D01*
X44886647Y13090702D01*
X44794153Y12867403D01*
X44747000Y12630349D01*
X44747000Y12388651D01*
X44794153Y12151597D01*
X44886647Y11928298D01*
X45020927Y11727333D01*
X45191833Y11556427D01*
X45392798Y11422147D01*
X45510798Y11373269D01*
X45342748Y11313657D01*
X45092645Y11164678D01*
X44876412Y10969769D01*
X44702359Y10736420D01*
X44577175Y10473599D01*
X44532524Y10326390D01*
X42217098Y10326390D01*
X42216246Y10335034D01*
X42146085Y10566324D01*
X42032150Y10779483D01*
X41878818Y10966317D01*
X41691983Y11119649D01*
X41478824Y11233584D01*
X41247534Y11303745D01*
X41007001Y11327436D01*
X40766467Y11303745D01*
X40535177Y11233584D01*
X40322018Y11119649D01*
X40135184Y10966317D01*
X39981852Y10779482D01*
X39867917Y10566323D01*
X39797756Y10335033D01*
X39780001Y10154767D01*
X39734001Y10154767D01*
X39734001Y10154768D01*
X39716246Y10335034D01*
X39646085Y10566324D01*
X39532150Y10779483D01*
X39378818Y10966317D01*
X39191983Y11119649D01*
X38978824Y11233584D01*
X38747534Y11303745D01*
X38507001Y11327436D01*
X38266467Y11303745D01*
X38035177Y11233584D01*
X37822018Y11119649D01*
X37635184Y10966317D01*
X37494406Y10794779D01*
X37495073Y10944500D01*
X37482813Y11068982D01*
X37446503Y11188680D01*
X37387538Y11298994D01*
X37308186Y11395685D01*
X37211495Y11475037D01*
X37101181Y11534002D01*
X36981483Y11570312D01*
X36857001Y11582572D01*
X36292751Y11579500D01*
X36134001Y11420750D01*
X35880001Y11420750D01*
X35721251Y11579500D01*
X35157001Y11582572D01*
X35032519Y11570312D01*
X34912821Y11534002D01*
X34802507Y11475037D01*
X34705816Y11395685D01*
X34626464Y11298994D01*
X34567499Y11188680D01*
X34531189Y11068982D01*
X34518929Y10944500D01*
X4813351Y10944500D01*
X4645202Y11056853D01*
X4421903Y11149347D01*
X4184849Y11196500D01*
X3943151Y11196500D01*
X3706097Y11149347D01*
X3482798Y11056853D01*
X3281833Y10922573D01*
X3110927Y10751667D01*
X2976647Y10550702D01*
X2884153Y10327403D01*
X2837000Y10090349D01*
X402000Y10090349D01*
X402000Y12630349D01*
X2837000Y12630349D01*
X2837000Y12388651D01*
X2884153Y12151597D01*
X2976647Y11928298D01*
X3110927Y11727333D01*
X3281833Y11556427D01*
X3482798Y11422147D01*
X3706097Y11329653D01*
X3943151Y11282500D01*
X4184849Y11282500D01*
X4421903Y11329653D01*
X4645202Y11422147D01*
X4846167Y11556427D01*
X5017073Y11727333D01*
X5151353Y11928298D01*
X5243847Y12151597D01*
X5291000Y12388651D01*
X5291000Y12630349D01*
X5243847Y12867403D01*
X5151353Y13090702D01*
X5017073Y13291667D01*
X4846167Y13462573D01*
X4645202Y13596853D01*
X4421903Y13689347D01*
X4184849Y13736500D01*
X3943151Y13736500D01*
X3706097Y13689347D01*
X3482798Y13596853D01*
X3281833Y13462573D01*
X3110927Y13291667D01*
X2976647Y13090702D01*
X2884153Y12867403D01*
X2837000Y12630349D01*
X402000Y12630349D01*
X402000Y15899500D01*
X2835176Y15899500D01*
X2835176Y14199500D01*
X2842455Y14125595D01*
X2864012Y14054530D01*
X2899019Y13989037D01*
X2946131Y13931631D01*
X3003537Y13884519D01*
X3069030Y13849512D01*
X3140095Y13827955D01*
X3214000Y13820676D01*
X4914000Y13820676D01*
X4987905Y13827955D01*
X5058970Y13849512D01*
X5124463Y13884519D01*
X5181869Y13931631D01*
X5228981Y13989037D01*
X5263988Y14054530D01*
X5285545Y14125595D01*
X5292824Y14199500D01*
X5292824Y15433679D01*
X30565000Y15433679D01*
X30565000Y15300321D01*
X30591016Y15169526D01*
X30642050Y15046320D01*
X30716140Y14935437D01*
X30790000Y14861577D01*
X30790001Y14094424D01*
X30716140Y14020563D01*
X30642050Y13909680D01*
X30591016Y13786474D01*
X30565000Y13655679D01*
X30565000Y13522321D01*
X30591016Y13391526D01*
X30642050Y13268320D01*
X30716140Y13157437D01*
X30810437Y13063140D01*
X30921320Y12989050D01*
X31044526Y12938016D01*
X31175321Y12912000D01*
X31308679Y12912000D01*
X31439474Y12938016D01*
X31562680Y12989050D01*
X31673563Y13063140D01*
X31767860Y13157437D01*
X31841950Y13268320D01*
X31892984Y13391526D01*
X31919000Y13522321D01*
X31919000Y13655679D01*
X31892984Y13786474D01*
X31841950Y13909680D01*
X31767860Y14020563D01*
X31694000Y14094423D01*
X31694000Y14861577D01*
X31767860Y14935437D01*
X31841950Y15046320D01*
X31892984Y15169526D01*
X31893147Y15170349D01*
X44747000Y15170349D01*
X44747000Y14928651D01*
X44794153Y14691597D01*
X44886647Y14468298D01*
X45020927Y14267333D01*
X45191833Y14096427D01*
X45392798Y13962147D01*
X45616097Y13869653D01*
X45853151Y13822500D01*
X46094849Y13822500D01*
X46331903Y13869653D01*
X46555202Y13962147D01*
X46756167Y14096427D01*
X46927073Y14267333D01*
X47061353Y14468298D01*
X47153847Y14691597D01*
X47201000Y14928651D01*
X47201000Y15170349D01*
X47153847Y15407403D01*
X47061353Y15630702D01*
X46927073Y15831667D01*
X46756167Y16002573D01*
X46555202Y16136853D01*
X46331903Y16229347D01*
X46094849Y16276500D01*
X45853151Y16276500D01*
X45616097Y16229347D01*
X45392798Y16136853D01*
X45191833Y16002573D01*
X45020927Y15831667D01*
X44886647Y15630702D01*
X44794153Y15407403D01*
X44747000Y15170349D01*
X31893147Y15170349D01*
X31919000Y15300321D01*
X31919000Y15433679D01*
X31892984Y15564474D01*
X31841950Y15687680D01*
X31767860Y15798563D01*
X31673563Y15892860D01*
X31562680Y15966950D01*
X31439474Y16017984D01*
X31308679Y16044000D01*
X31175321Y16044000D01*
X31044526Y16017984D01*
X30921320Y15966950D01*
X30810437Y15892860D01*
X30716140Y15798563D01*
X30642050Y15687680D01*
X30591016Y15564474D01*
X30565000Y15433679D01*
X5292824Y15433679D01*
X5292824Y15899500D01*
X5285545Y15973405D01*
X5263988Y16044470D01*
X5228981Y16109963D01*
X5181869Y16167369D01*
X5124463Y16214481D01*
X5058970Y16249488D01*
X4987905Y16271045D01*
X4914000Y16278324D01*
X3214000Y16278324D01*
X3140095Y16271045D01*
X3069030Y16249488D01*
X3003537Y16214481D01*
X2946131Y16167369D01*
X2899019Y16109963D01*
X2864012Y16044470D01*
X2842455Y15973405D01*
X2835176Y15899500D01*
X402000Y15899500D01*
X402000Y20725500D01*
X1120676Y20725500D01*
X1120676Y19025500D01*
X1127955Y18951595D01*
X1149512Y18880530D01*
X1184519Y18815037D01*
X1231631Y18757631D01*
X1289037Y18710519D01*
X1354530Y18675512D01*
X1425595Y18653955D01*
X1499500Y18646676D01*
X3199500Y18646676D01*
X3273405Y18653955D01*
X3344470Y18675512D01*
X3409963Y18710519D01*
X3467369Y18757631D01*
X3514481Y18815037D01*
X3549488Y18880530D01*
X3571045Y18951595D01*
X3578324Y19025500D01*
X3578324Y19996349D01*
X3662500Y19996349D01*
X3662500Y19754651D01*
X3709653Y19517597D01*
X3802147Y19294298D01*
X3936427Y19093333D01*
X4107333Y18922427D01*
X4308298Y18788147D01*
X4531597Y18695653D01*
X4768651Y18648500D01*
X5010349Y18648500D01*
X5247403Y18695653D01*
X5470702Y18788147D01*
X5671667Y18922427D01*
X5842573Y19093333D01*
X5976853Y19294298D01*
X6069347Y19517597D01*
X6116500Y19754651D01*
X6116500Y19996349D01*
X6069347Y20233403D01*
X5976853Y20456702D01*
X5842573Y20657667D01*
X5671667Y20828573D01*
X5470702Y20962853D01*
X5247403Y21055347D01*
X5010349Y21102500D01*
X4768651Y21102500D01*
X4531597Y21055347D01*
X4308298Y20962853D01*
X4107333Y20828573D01*
X3936427Y20657667D01*
X3802147Y20456702D01*
X3709653Y20233403D01*
X3662500Y19996349D01*
X3578324Y19996349D01*
X3578324Y20725500D01*
X3571045Y20799405D01*
X3549488Y20870470D01*
X3514481Y20935963D01*
X3467369Y20993369D01*
X3409963Y21040481D01*
X3344470Y21075488D01*
X3273405Y21097045D01*
X3199500Y21104324D01*
X1499500Y21104324D01*
X1425595Y21097045D01*
X1354530Y21075488D01*
X1289037Y21040481D01*
X1231631Y20993369D01*
X1184519Y20935963D01*
X1149512Y20870470D01*
X1127955Y20799405D01*
X1120676Y20725500D01*
X402000Y20725500D01*
X402000Y22536349D01*
X1122500Y22536349D01*
X1122500Y22294651D01*
X1169653Y22057597D01*
X1262147Y21834298D01*
X1396427Y21633333D01*
X1567333Y21462427D01*
X1768298Y21328147D01*
X1991597Y21235653D01*
X2228651Y21188500D01*
X2470349Y21188500D01*
X2707403Y21235653D01*
X2930702Y21328147D01*
X3131667Y21462427D01*
X3302573Y21633333D01*
X3436853Y21834298D01*
X3529347Y22057597D01*
X3576500Y22294651D01*
X3576500Y22536349D01*
X3662500Y22536349D01*
X3662500Y22294651D01*
X3709653Y22057597D01*
X3802147Y21834298D01*
X3936427Y21633333D01*
X4107333Y21462427D01*
X4308298Y21328147D01*
X4531597Y21235653D01*
X4768651Y21188500D01*
X5010349Y21188500D01*
X5247403Y21235653D01*
X5470702Y21328147D01*
X5671667Y21462427D01*
X5842573Y21633333D01*
X5976853Y21834298D01*
X6025731Y21952298D01*
X6085343Y21784248D01*
X6234322Y21534145D01*
X6429231Y21317912D01*
X6662580Y21143859D01*
X6925401Y21018675D01*
X6958688Y21008578D01*
X6848298Y20962853D01*
X6647333Y20828573D01*
X6476427Y20657667D01*
X6342147Y20456702D01*
X6249653Y20233403D01*
X6202500Y19996349D01*
X6202500Y19754651D01*
X6249653Y19517597D01*
X6342147Y19294298D01*
X6476427Y19093333D01*
X6647333Y18922427D01*
X6848298Y18788147D01*
X7071597Y18695653D01*
X7308651Y18648500D01*
X7550349Y18648500D01*
X7787403Y18695653D01*
X8010702Y18788147D01*
X8211667Y18922427D01*
X8382573Y19093333D01*
X8516853Y19294298D01*
X8609347Y19517597D01*
X8656500Y19754651D01*
X8656500Y19996349D01*
X8609347Y20233403D01*
X8516853Y20456702D01*
X8382573Y20657667D01*
X8211667Y20828573D01*
X8010702Y20962853D01*
X7900312Y21008578D01*
X7933599Y21018675D01*
X8196420Y21143859D01*
X8429769Y21317912D01*
X8624678Y21534145D01*
X8773657Y21784248D01*
X8870981Y22058609D01*
X8750314Y22288500D01*
X7556500Y22288500D01*
X7556500Y22268500D01*
X7302500Y22268500D01*
X7302500Y22288500D01*
X7282500Y22288500D01*
X7282500Y22542500D01*
X7302500Y22542500D01*
X7302500Y23735655D01*
X7556500Y23735655D01*
X7556500Y22542500D01*
X8750314Y22542500D01*
X8870981Y22772391D01*
X8773657Y23046752D01*
X8624678Y23296855D01*
X8429769Y23513088D01*
X8196420Y23687141D01*
X7933599Y23812325D01*
X7786390Y23856976D01*
X7556500Y23735655D01*
X7302500Y23735655D01*
X7072610Y23856976D01*
X6925401Y23812325D01*
X6662580Y23687141D01*
X6429231Y23513088D01*
X6234322Y23296855D01*
X6085343Y23046752D01*
X6025731Y22878702D01*
X5976853Y22996702D01*
X5842573Y23197667D01*
X5671667Y23368573D01*
X5470702Y23502853D01*
X5247403Y23595347D01*
X5010349Y23642500D01*
X4768651Y23642500D01*
X4531597Y23595347D01*
X4308298Y23502853D01*
X4107333Y23368573D01*
X3936427Y23197667D01*
X3802147Y22996702D01*
X3709653Y22773403D01*
X3662500Y22536349D01*
X3576500Y22536349D01*
X3529347Y22773403D01*
X3436853Y22996702D01*
X3302573Y23197667D01*
X3131667Y23368573D01*
X2930702Y23502853D01*
X2707403Y23595347D01*
X2470349Y23642500D01*
X2228651Y23642500D01*
X1991597Y23595347D01*
X1768298Y23502853D01*
X1567333Y23368573D01*
X1396427Y23197667D01*
X1262147Y22996702D01*
X1169653Y22773403D01*
X1122500Y22536349D01*
X402000Y22536349D01*
X402000Y24553500D01*
X49636001Y24553500D01*
X49636000Y402000D01*
G37*
%TD.AperFunction*%
%TD*%
M02*
