%TF.GenerationSoftware,KiCad,Pcbnew,(5.1.9-0-10_14)*%
%TF.CreationDate,2021-05-08T21:12:27+02:00*%
%TF.ProjectId,MFM-Module-SEN0313,4d464d2d-4d6f-4647-956c-652d53454e30,rev?*%
%TF.SameCoordinates,PX82714f8PY6141b48*%
%TF.FileFunction,Paste,Top*%
%TF.FilePolarity,Positive*%
%FSLAX46Y46*%
G04 Gerber Fmt 4.6, Leading zero omitted, Abs format (unit mm)*
G04 Created by KiCad (PCBNEW (5.1.9-0-10_14)) date 2021-05-08 21:12:27*
%MOMM*%
%LPD*%
G01*
G04 APERTURE LIST*
%ADD10R,1.800000X1.350000*%
%ADD11R,0.900000X0.800000*%
G04 APERTURE END LIST*
D10*
%TO.C,SW1*%
X11747500Y23284000D03*
X11747500Y19134000D03*
%TD*%
%TO.C,C1*%
G36*
G01*
X22546500Y17798500D02*
X23046500Y17798500D01*
G75*
G02*
X23271500Y17573500I0J-225000D01*
G01*
X23271500Y17123500D01*
G75*
G02*
X23046500Y16898500I-225000J0D01*
G01*
X22546500Y16898500D01*
G75*
G02*
X22321500Y17123500I0J225000D01*
G01*
X22321500Y17573500D01*
G75*
G02*
X22546500Y17798500I225000J0D01*
G01*
G37*
G36*
G01*
X22546500Y16248500D02*
X23046500Y16248500D01*
G75*
G02*
X23271500Y16023500I0J-225000D01*
G01*
X23271500Y15573500D01*
G75*
G02*
X23046500Y15348500I-225000J0D01*
G01*
X22546500Y15348500D01*
G75*
G02*
X22321500Y15573500I0J225000D01*
G01*
X22321500Y16023500D01*
G75*
G02*
X22546500Y16248500I225000J0D01*
G01*
G37*
%TD*%
%TO.C,R1*%
G36*
G01*
X40785500Y14054500D02*
X40785500Y13504500D01*
G75*
G02*
X40585500Y13304500I-200000J0D01*
G01*
X40185500Y13304500D01*
G75*
G02*
X39985500Y13504500I0J200000D01*
G01*
X39985500Y14054500D01*
G75*
G02*
X40185500Y14254500I200000J0D01*
G01*
X40585500Y14254500D01*
G75*
G02*
X40785500Y14054500I0J-200000D01*
G01*
G37*
G36*
G01*
X39135500Y14054500D02*
X39135500Y13504500D01*
G75*
G02*
X38935500Y13304500I-200000J0D01*
G01*
X38535500Y13304500D01*
G75*
G02*
X38335500Y13504500I0J200000D01*
G01*
X38335500Y14054500D01*
G75*
G02*
X38535500Y14254500I200000J0D01*
G01*
X38935500Y14254500D01*
G75*
G02*
X39135500Y14054500I0J-200000D01*
G01*
G37*
%TD*%
%TO.C,U1*%
G36*
G01*
X21230000Y15961500D02*
X21230000Y15661500D01*
G75*
G02*
X21080000Y15511500I-150000J0D01*
G01*
X19430000Y15511500D01*
G75*
G02*
X19280000Y15661500I0J150000D01*
G01*
X19280000Y15961500D01*
G75*
G02*
X19430000Y16111500I150000J0D01*
G01*
X21080000Y16111500D01*
G75*
G02*
X21230000Y15961500I0J-150000D01*
G01*
G37*
G36*
G01*
X21230000Y17231500D02*
X21230000Y16931500D01*
G75*
G02*
X21080000Y16781500I-150000J0D01*
G01*
X19430000Y16781500D01*
G75*
G02*
X19280000Y16931500I0J150000D01*
G01*
X19280000Y17231500D01*
G75*
G02*
X19430000Y17381500I150000J0D01*
G01*
X21080000Y17381500D01*
G75*
G02*
X21230000Y17231500I0J-150000D01*
G01*
G37*
G36*
G01*
X21230000Y18501500D02*
X21230000Y18201500D01*
G75*
G02*
X21080000Y18051500I-150000J0D01*
G01*
X19430000Y18051500D01*
G75*
G02*
X19280000Y18201500I0J150000D01*
G01*
X19280000Y18501500D01*
G75*
G02*
X19430000Y18651500I150000J0D01*
G01*
X21080000Y18651500D01*
G75*
G02*
X21230000Y18501500I0J-150000D01*
G01*
G37*
G36*
G01*
X21230000Y19771500D02*
X21230000Y19471500D01*
G75*
G02*
X21080000Y19321500I-150000J0D01*
G01*
X19430000Y19321500D01*
G75*
G02*
X19280000Y19471500I0J150000D01*
G01*
X19280000Y19771500D01*
G75*
G02*
X19430000Y19921500I150000J0D01*
G01*
X21080000Y19921500D01*
G75*
G02*
X21230000Y19771500I0J-150000D01*
G01*
G37*
G36*
G01*
X21230000Y21041500D02*
X21230000Y20741500D01*
G75*
G02*
X21080000Y20591500I-150000J0D01*
G01*
X19430000Y20591500D01*
G75*
G02*
X19280000Y20741500I0J150000D01*
G01*
X19280000Y21041500D01*
G75*
G02*
X19430000Y21191500I150000J0D01*
G01*
X21080000Y21191500D01*
G75*
G02*
X21230000Y21041500I0J-150000D01*
G01*
G37*
G36*
G01*
X21230000Y22311500D02*
X21230000Y22011500D01*
G75*
G02*
X21080000Y21861500I-150000J0D01*
G01*
X19430000Y21861500D01*
G75*
G02*
X19280000Y22011500I0J150000D01*
G01*
X19280000Y22311500D01*
G75*
G02*
X19430000Y22461500I150000J0D01*
G01*
X21080000Y22461500D01*
G75*
G02*
X21230000Y22311500I0J-150000D01*
G01*
G37*
G36*
G01*
X21230000Y23581500D02*
X21230000Y23281500D01*
G75*
G02*
X21080000Y23131500I-150000J0D01*
G01*
X19430000Y23131500D01*
G75*
G02*
X19280000Y23281500I0J150000D01*
G01*
X19280000Y23581500D01*
G75*
G02*
X19430000Y23731500I150000J0D01*
G01*
X21080000Y23731500D01*
G75*
G02*
X21230000Y23581500I0J-150000D01*
G01*
G37*
G36*
G01*
X16280000Y23581500D02*
X16280000Y23281500D01*
G75*
G02*
X16130000Y23131500I-150000J0D01*
G01*
X14480000Y23131500D01*
G75*
G02*
X14330000Y23281500I0J150000D01*
G01*
X14330000Y23581500D01*
G75*
G02*
X14480000Y23731500I150000J0D01*
G01*
X16130000Y23731500D01*
G75*
G02*
X16280000Y23581500I0J-150000D01*
G01*
G37*
G36*
G01*
X16280000Y22311500D02*
X16280000Y22011500D01*
G75*
G02*
X16130000Y21861500I-150000J0D01*
G01*
X14480000Y21861500D01*
G75*
G02*
X14330000Y22011500I0J150000D01*
G01*
X14330000Y22311500D01*
G75*
G02*
X14480000Y22461500I150000J0D01*
G01*
X16130000Y22461500D01*
G75*
G02*
X16280000Y22311500I0J-150000D01*
G01*
G37*
G36*
G01*
X16280000Y21041500D02*
X16280000Y20741500D01*
G75*
G02*
X16130000Y20591500I-150000J0D01*
G01*
X14480000Y20591500D01*
G75*
G02*
X14330000Y20741500I0J150000D01*
G01*
X14330000Y21041500D01*
G75*
G02*
X14480000Y21191500I150000J0D01*
G01*
X16130000Y21191500D01*
G75*
G02*
X16280000Y21041500I0J-150000D01*
G01*
G37*
G36*
G01*
X16280000Y19771500D02*
X16280000Y19471500D01*
G75*
G02*
X16130000Y19321500I-150000J0D01*
G01*
X14480000Y19321500D01*
G75*
G02*
X14330000Y19471500I0J150000D01*
G01*
X14330000Y19771500D01*
G75*
G02*
X14480000Y19921500I150000J0D01*
G01*
X16130000Y19921500D01*
G75*
G02*
X16280000Y19771500I0J-150000D01*
G01*
G37*
G36*
G01*
X16280000Y18501500D02*
X16280000Y18201500D01*
G75*
G02*
X16130000Y18051500I-150000J0D01*
G01*
X14480000Y18051500D01*
G75*
G02*
X14330000Y18201500I0J150000D01*
G01*
X14330000Y18501500D01*
G75*
G02*
X14480000Y18651500I150000J0D01*
G01*
X16130000Y18651500D01*
G75*
G02*
X16280000Y18501500I0J-150000D01*
G01*
G37*
G36*
G01*
X16280000Y17231500D02*
X16280000Y16931500D01*
G75*
G02*
X16130000Y16781500I-150000J0D01*
G01*
X14480000Y16781500D01*
G75*
G02*
X14330000Y16931500I0J150000D01*
G01*
X14330000Y17231500D01*
G75*
G02*
X14480000Y17381500I150000J0D01*
G01*
X16130000Y17381500D01*
G75*
G02*
X16280000Y17231500I0J-150000D01*
G01*
G37*
G36*
G01*
X16280000Y15961500D02*
X16280000Y15661500D01*
G75*
G02*
X16130000Y15511500I-150000J0D01*
G01*
X14480000Y15511500D01*
G75*
G02*
X14330000Y15661500I0J150000D01*
G01*
X14330000Y15961500D01*
G75*
G02*
X14480000Y16111500I150000J0D01*
G01*
X16130000Y16111500D01*
G75*
G02*
X16280000Y15961500I0J-150000D01*
G01*
G37*
%TD*%
D11*
%TO.C,Q1*%
X35046501Y19370499D03*
X33046501Y18420499D03*
X33046501Y20320499D03*
%TD*%
%TO.C,Q2*%
X36909500Y20317500D03*
X36909500Y18417500D03*
X38909500Y19367500D03*
%TD*%
%TO.C,R2*%
G36*
G01*
X30967000Y20592500D02*
X31517000Y20592500D01*
G75*
G02*
X31717000Y20392500I0J-200000D01*
G01*
X31717000Y19992500D01*
G75*
G02*
X31517000Y19792500I-200000J0D01*
G01*
X30967000Y19792500D01*
G75*
G02*
X30767000Y19992500I0J200000D01*
G01*
X30767000Y20392500D01*
G75*
G02*
X30967000Y20592500I200000J0D01*
G01*
G37*
G36*
G01*
X30967000Y18942500D02*
X31517000Y18942500D01*
G75*
G02*
X31717000Y18742500I0J-200000D01*
G01*
X31717000Y18342500D01*
G75*
G02*
X31517000Y18142500I-200000J0D01*
G01*
X30967000Y18142500D01*
G75*
G02*
X30767000Y18342500I0J200000D01*
G01*
X30767000Y18742500D01*
G75*
G02*
X30967000Y18942500I200000J0D01*
G01*
G37*
%TD*%
%TO.C,R3*%
G36*
G01*
X34461000Y21950000D02*
X34461000Y22500000D01*
G75*
G02*
X34661000Y22700000I200000J0D01*
G01*
X35061000Y22700000D01*
G75*
G02*
X35261000Y22500000I0J-200000D01*
G01*
X35261000Y21950000D01*
G75*
G02*
X35061000Y21750000I-200000J0D01*
G01*
X34661000Y21750000D01*
G75*
G02*
X34461000Y21950000I0J200000D01*
G01*
G37*
G36*
G01*
X32811000Y21950000D02*
X32811000Y22500000D01*
G75*
G02*
X33011000Y22700000I200000J0D01*
G01*
X33411000Y22700000D01*
G75*
G02*
X33611000Y22500000I0J-200000D01*
G01*
X33611000Y21950000D01*
G75*
G02*
X33411000Y21750000I-200000J0D01*
G01*
X33011000Y21750000D01*
G75*
G02*
X32811000Y21950000I0J200000D01*
G01*
G37*
%TD*%
%TO.C,R4*%
G36*
G01*
X39134500Y22500000D02*
X39134500Y21950000D01*
G75*
G02*
X38934500Y21750000I-200000J0D01*
G01*
X38534500Y21750000D01*
G75*
G02*
X38334500Y21950000I0J200000D01*
G01*
X38334500Y22500000D01*
G75*
G02*
X38534500Y22700000I200000J0D01*
G01*
X38934500Y22700000D01*
G75*
G02*
X39134500Y22500000I0J-200000D01*
G01*
G37*
G36*
G01*
X37484500Y22500000D02*
X37484500Y21950000D01*
G75*
G02*
X37284500Y21750000I-200000J0D01*
G01*
X36884500Y21750000D01*
G75*
G02*
X36684500Y21950000I0J200000D01*
G01*
X36684500Y22500000D01*
G75*
G02*
X36884500Y22700000I200000J0D01*
G01*
X37284500Y22700000D01*
G75*
G02*
X37484500Y22500000I0J-200000D01*
G01*
G37*
%TD*%
M02*
