M48
; DRILL file {KiCad (5.1.9-0-10_14)} date Saturday, May 08, 2021 at 09:12:29 PM
; FORMAT={3:3/ absolute / metric / suppress leading zeros}
; #@! TF.CreationDate,2021-05-08T21:12:29+02:00
; #@! TF.GenerationSoftware,Kicad,Pcbnew,(5.1.9-0-10_14)
FMAT,2
METRIC,TZ
T1C0.300
T2C0.350
T3C0.700
T4C0.950
T5C1.000
T6C1.100
%
G90
G05
T1
X13106Y23266
X13843Y15811
X16637Y15811
X22796Y18225
X33084Y17526
X35687Y22225
T2
X31242Y15367
X31242Y13589
T3
X23557Y8852
X25557Y8852
X27557Y8852
X29557Y8852
T4
X36007Y9970
X38507Y9970
X41007Y9970
T5
X2350Y22415
X2350Y19876
X4064Y15050
X4064Y12510
X4064Y9970
X4889Y22415
X4889Y19876
X7430Y22415
X7430Y19876
X45974Y15050
X45974Y12510
X45974Y9970
T6
X22057Y6752
X31057Y6752
T0
M30
