%TF.GenerationSoftware,KiCad,Pcbnew,(5.1.9-0-10_14)*%
%TF.CreationDate,2021-05-08T21:12:27+02:00*%
%TF.ProjectId,MFM-Module-SEN0313,4d464d2d-4d6f-4647-956c-652d53454e30,rev?*%
%TF.SameCoordinates,PX82714f8PY6141b48*%
%TF.FileFunction,Legend,Bot*%
%TF.FilePolarity,Positive*%
%FSLAX46Y46*%
G04 Gerber Fmt 4.6, Leading zero omitted, Abs format (unit mm)*
G04 Created by KiCad (PCBNEW (5.1.9-0-10_14)) date 2021-05-08 21:12:27*
%MOMM*%
%LPD*%
G01*
G04 APERTURE LIST*
%ADD10C,0.100000*%
%ADD11C,0.150000*%
G04 APERTURE END LIST*
D10*
X40546785Y13332286D02*
X40546785Y12868000D01*
X40832500Y13118000D01*
X40832500Y13010858D01*
X40868214Y12939429D01*
X40903928Y12903715D01*
X40975357Y12868000D01*
X41153928Y12868000D01*
X41225357Y12903715D01*
X41261071Y12939429D01*
X41296785Y13010858D01*
X41296785Y13225143D01*
X41261071Y13296572D01*
X41225357Y13332286D01*
X40546785Y12653715D02*
X41296785Y12403715D01*
X40546785Y12153715D01*
X40546785Y11975143D02*
X40546785Y11510858D01*
X40832500Y11760858D01*
X40832500Y11653715D01*
X40868214Y11582286D01*
X40903928Y11546572D01*
X40975357Y11510858D01*
X41153928Y11510858D01*
X41225357Y11546572D01*
X41261071Y11582286D01*
X41296785Y11653715D01*
X41296785Y11868000D01*
X41261071Y11939429D01*
X41225357Y11975143D01*
X38883785Y13796572D02*
X38133785Y13796572D01*
X38133785Y13618000D01*
X38169500Y13510858D01*
X38240928Y13439429D01*
X38312357Y13403715D01*
X38455214Y13368000D01*
X38562357Y13368000D01*
X38705214Y13403715D01*
X38776642Y13439429D01*
X38848071Y13510858D01*
X38883785Y13618000D01*
X38883785Y13796572D01*
X38669500Y13082286D02*
X38669500Y12725143D01*
X38883785Y13153715D02*
X38133785Y12903715D01*
X38883785Y12653715D01*
X38133785Y12510858D02*
X38133785Y12082286D01*
X38883785Y12296572D02*
X38133785Y12296572D01*
X38669500Y11868000D02*
X38669500Y11510858D01*
X38883785Y11939429D02*
X38133785Y11689429D01*
X38883785Y11439429D01*
X35629500Y13082286D02*
X35593785Y13153715D01*
X35593785Y13260858D01*
X35629500Y13368000D01*
X35700928Y13439429D01*
X35772357Y13475143D01*
X35915214Y13510858D01*
X36022357Y13510858D01*
X36165214Y13475143D01*
X36236642Y13439429D01*
X36308071Y13368000D01*
X36343785Y13260858D01*
X36343785Y13189429D01*
X36308071Y13082286D01*
X36272357Y13046572D01*
X36022357Y13046572D01*
X36022357Y13189429D01*
X36343785Y12725143D02*
X35593785Y12725143D01*
X36343785Y12296572D01*
X35593785Y12296572D01*
X36343785Y11939429D02*
X35593785Y11939429D01*
X35593785Y11760858D01*
X35629500Y11653715D01*
X35700928Y11582286D01*
X35772357Y11546572D01*
X35915214Y11510858D01*
X36022357Y11510858D01*
X36165214Y11546572D01*
X36236642Y11582286D01*
X36308071Y11653715D01*
X36343785Y11760858D01*
X36343785Y11939429D01*
X29180285Y11375786D02*
X29180285Y10947215D01*
X29930285Y11161500D02*
X29180285Y11161500D01*
X29180285Y10768643D02*
X29930285Y10268643D01*
X29180285Y10268643D02*
X29930285Y10768643D01*
X27898285Y11018643D02*
X27541142Y11268643D01*
X27898285Y11447215D02*
X27148285Y11447215D01*
X27148285Y11161500D01*
X27184000Y11090072D01*
X27219714Y11054358D01*
X27291142Y11018643D01*
X27398285Y11018643D01*
X27469714Y11054358D01*
X27505428Y11090072D01*
X27541142Y11161500D01*
X27541142Y11447215D01*
X27148285Y10768643D02*
X27898285Y10268643D01*
X27148285Y10268643D02*
X27898285Y10768643D01*
X25152000Y11875786D02*
X25116285Y11947215D01*
X25116285Y12054358D01*
X25152000Y12161500D01*
X25223428Y12232929D01*
X25294857Y12268643D01*
X25437714Y12304358D01*
X25544857Y12304358D01*
X25687714Y12268643D01*
X25759142Y12232929D01*
X25830571Y12161500D01*
X25866285Y12054358D01*
X25866285Y11982929D01*
X25830571Y11875786D01*
X25794857Y11840072D01*
X25544857Y11840072D01*
X25544857Y11982929D01*
X25866285Y11518643D02*
X25116285Y11518643D01*
X25866285Y11090072D01*
X25116285Y11090072D01*
X25866285Y10732929D02*
X25116285Y10732929D01*
X25116285Y10554358D01*
X25152000Y10447215D01*
X25223428Y10375786D01*
X25294857Y10340072D01*
X25437714Y10304358D01*
X25544857Y10304358D01*
X25687714Y10340072D01*
X25759142Y10375786D01*
X25830571Y10447215D01*
X25866285Y10554358D01*
X25866285Y10732929D01*
X23147785Y12062286D02*
X23147785Y11598000D01*
X23433500Y11848000D01*
X23433500Y11740858D01*
X23469214Y11669429D01*
X23504928Y11633715D01*
X23576357Y11598000D01*
X23754928Y11598000D01*
X23826357Y11633715D01*
X23862071Y11669429D01*
X23897785Y11740858D01*
X23897785Y11955143D01*
X23862071Y12026572D01*
X23826357Y12062286D01*
X23147785Y11383715D02*
X23897785Y11133715D01*
X23147785Y10883715D01*
X23147785Y10705143D02*
X23147785Y10240858D01*
X23433500Y10490858D01*
X23433500Y10383715D01*
X23469214Y10312286D01*
X23504928Y10276572D01*
X23576357Y10240858D01*
X23754928Y10240858D01*
X23826357Y10276572D01*
X23862071Y10312286D01*
X23897785Y10383715D01*
X23897785Y10598000D01*
X23862071Y10669429D01*
X23826357Y10705143D01*
X297690Y21907405D02*
X702452Y21907405D01*
X750071Y21883596D01*
X773880Y21859786D01*
X797690Y21812167D01*
X797690Y21716929D01*
X773880Y21669310D01*
X750071Y21645500D01*
X702452Y21621691D01*
X297690Y21621691D01*
X797690Y21383596D02*
X297690Y21383596D01*
X297690Y21193120D01*
X321500Y21145500D01*
X345309Y21121691D01*
X392928Y21097881D01*
X464357Y21097881D01*
X511976Y21121691D01*
X535785Y21145500D01*
X559595Y21193120D01*
X559595Y21383596D01*
X797690Y20883596D02*
X297690Y20883596D01*
X297690Y20764548D01*
X321500Y20693120D01*
X369119Y20645500D01*
X416738Y20621691D01*
X511976Y20597881D01*
X583404Y20597881D01*
X678642Y20621691D01*
X726261Y20645500D01*
X773880Y20693120D01*
X797690Y20764548D01*
X797690Y20883596D01*
X797690Y20383596D02*
X297690Y20383596D01*
X2731714Y17941715D02*
X2981714Y18298858D01*
X3160285Y17941715D02*
X3160285Y18691715D01*
X2874571Y18691715D01*
X2803142Y18656000D01*
X2767428Y18620286D01*
X2731714Y18548858D01*
X2731714Y18441715D01*
X2767428Y18370286D01*
X2803142Y18334572D01*
X2874571Y18298858D01*
X3160285Y18298858D01*
X2446000Y17977429D02*
X2338857Y17941715D01*
X2160285Y17941715D01*
X2088857Y17977429D01*
X2053142Y18013143D01*
X2017428Y18084572D01*
X2017428Y18156000D01*
X2053142Y18227429D01*
X2088857Y18263143D01*
X2160285Y18298858D01*
X2303142Y18334572D01*
X2374571Y18370286D01*
X2410285Y18406000D01*
X2446000Y18477429D01*
X2446000Y18548858D01*
X2410285Y18620286D01*
X2374571Y18656000D01*
X2303142Y18691715D01*
X2124571Y18691715D01*
X2017428Y18656000D01*
X1803142Y18691715D02*
X1374571Y18691715D01*
X1588857Y17941715D02*
X1588857Y18691715D01*
X6068071Y23600215D02*
X6068071Y24350215D01*
X5818071Y23814500D01*
X5568071Y24350215D01*
X5568071Y23600215D01*
X5068071Y24350215D02*
X4925214Y24350215D01*
X4853785Y24314500D01*
X4782357Y24243072D01*
X4746642Y24100215D01*
X4746642Y23850215D01*
X4782357Y23707358D01*
X4853785Y23635929D01*
X4925214Y23600215D01*
X5068071Y23600215D01*
X5139500Y23635929D01*
X5210928Y23707358D01*
X5246642Y23850215D01*
X5246642Y24100215D01*
X5210928Y24243072D01*
X5139500Y24314500D01*
X5068071Y24350215D01*
X4460928Y23635929D02*
X4353785Y23600215D01*
X4175214Y23600215D01*
X4103785Y23635929D01*
X4068071Y23671643D01*
X4032357Y23743072D01*
X4032357Y23814500D01*
X4068071Y23885929D01*
X4103785Y23921643D01*
X4175214Y23957358D01*
X4318071Y23993072D01*
X4389500Y24028786D01*
X4425214Y24064500D01*
X4460928Y24135929D01*
X4460928Y24207358D01*
X4425214Y24278786D01*
X4389500Y24314500D01*
X4318071Y24350215D01*
X4139500Y24350215D01*
X4032357Y24314500D01*
X3710928Y23600215D02*
X3710928Y24350215D01*
X8000928Y24314500D02*
X8072357Y24350215D01*
X8179500Y24350215D01*
X8286642Y24314500D01*
X8358071Y24243072D01*
X8393785Y24171643D01*
X8429500Y24028786D01*
X8429500Y23921643D01*
X8393785Y23778786D01*
X8358071Y23707358D01*
X8286642Y23635929D01*
X8179500Y23600215D01*
X8108071Y23600215D01*
X8000928Y23635929D01*
X7965214Y23671643D01*
X7965214Y23921643D01*
X8108071Y23921643D01*
X7643785Y23600215D02*
X7643785Y24350215D01*
X7215214Y23600215D01*
X7215214Y24350215D01*
X6858071Y23600215D02*
X6858071Y24350215D01*
X6679500Y24350215D01*
X6572357Y24314500D01*
X6500928Y24243072D01*
X6465214Y24171643D01*
X6429500Y24028786D01*
X6429500Y23921643D01*
X6465214Y23778786D01*
X6500928Y23707358D01*
X6572357Y23635929D01*
X6679500Y23600215D01*
X6858071Y23600215D01*
X3178857Y24413715D02*
X2714571Y24413715D01*
X2964571Y24128000D01*
X2857428Y24128000D01*
X2786000Y24092286D01*
X2750285Y24056572D01*
X2714571Y23985143D01*
X2714571Y23806572D01*
X2750285Y23735143D01*
X2786000Y23699429D01*
X2857428Y23663715D01*
X3071714Y23663715D01*
X3143142Y23699429D01*
X3178857Y23735143D01*
X2464571Y24163715D02*
X2286000Y23663715D01*
X2107428Y24163715D01*
X1893142Y24413715D02*
X1428857Y24413715D01*
X1678857Y24128000D01*
X1571714Y24128000D01*
X1500285Y24092286D01*
X1464571Y24056572D01*
X1428857Y23985143D01*
X1428857Y23806572D01*
X1464571Y23735143D01*
X1500285Y23699429D01*
X1571714Y23663715D01*
X1786000Y23663715D01*
X1857428Y23699429D01*
X1893142Y23735143D01*
X5853785Y17977429D02*
X5746642Y17941715D01*
X5568071Y17941715D01*
X5496642Y17977429D01*
X5460928Y18013143D01*
X5425214Y18084572D01*
X5425214Y18156000D01*
X5460928Y18227429D01*
X5496642Y18263143D01*
X5568071Y18298858D01*
X5710928Y18334572D01*
X5782357Y18370286D01*
X5818071Y18406000D01*
X5853785Y18477429D01*
X5853785Y18548858D01*
X5818071Y18620286D01*
X5782357Y18656000D01*
X5710928Y18691715D01*
X5532357Y18691715D01*
X5425214Y18656000D01*
X4675214Y18013143D02*
X4710928Y17977429D01*
X4818071Y17941715D01*
X4889500Y17941715D01*
X4996642Y17977429D01*
X5068071Y18048858D01*
X5103785Y18120286D01*
X5139500Y18263143D01*
X5139500Y18370286D01*
X5103785Y18513143D01*
X5068071Y18584572D01*
X4996642Y18656000D01*
X4889500Y18691715D01*
X4818071Y18691715D01*
X4710928Y18656000D01*
X4675214Y18620286D01*
X4353785Y17941715D02*
X4353785Y18691715D01*
X3925214Y17941715D02*
X4246642Y18370286D01*
X3925214Y18691715D02*
X4353785Y18263143D01*
X8925571Y18012215D02*
X8925571Y18762215D01*
X8675571Y18226500D01*
X8425571Y18762215D01*
X8425571Y18012215D01*
X8068428Y18012215D02*
X8068428Y18762215D01*
X7747000Y18047929D02*
X7639857Y18012215D01*
X7461285Y18012215D01*
X7389857Y18047929D01*
X7354142Y18083643D01*
X7318428Y18155072D01*
X7318428Y18226500D01*
X7354142Y18297929D01*
X7389857Y18333643D01*
X7461285Y18369358D01*
X7604142Y18405072D01*
X7675571Y18440786D01*
X7711285Y18476500D01*
X7747000Y18547929D01*
X7747000Y18619358D01*
X7711285Y18690786D01*
X7675571Y18726500D01*
X7604142Y18762215D01*
X7425571Y18762215D01*
X7318428Y18726500D01*
X6854142Y18762215D02*
X6711285Y18762215D01*
X6639857Y18726500D01*
X6568428Y18655072D01*
X6532714Y18512215D01*
X6532714Y18262215D01*
X6568428Y18119358D01*
X6639857Y18047929D01*
X6711285Y18012215D01*
X6854142Y18012215D01*
X6925571Y18047929D01*
X6997000Y18119358D01*
X7032714Y18262215D01*
X7032714Y18512215D01*
X6997000Y18655072D01*
X6925571Y18726500D01*
X6854142Y18762215D01*
X49499571Y15460215D02*
X49035285Y15460215D01*
X49285285Y15174500D01*
X49178142Y15174500D01*
X49106714Y15138786D01*
X49071000Y15103072D01*
X49035285Y15031643D01*
X49035285Y14853072D01*
X49071000Y14781643D01*
X49106714Y14745929D01*
X49178142Y14710215D01*
X49392428Y14710215D01*
X49463857Y14745929D01*
X49499571Y14781643D01*
X48821000Y15460215D02*
X48571000Y14710215D01*
X48321000Y15460215D01*
X48142428Y15460215D02*
X47678142Y15460215D01*
X47928142Y15174500D01*
X47821000Y15174500D01*
X47749571Y15138786D01*
X47713857Y15103072D01*
X47678142Y15031643D01*
X47678142Y14853072D01*
X47713857Y14781643D01*
X47749571Y14745929D01*
X47821000Y14710215D01*
X48035285Y14710215D01*
X48106714Y14745929D01*
X48142428Y14781643D01*
X49581714Y12941715D02*
X49331714Y12191715D01*
X49081714Y12941715D01*
X48581714Y12584572D02*
X48474571Y12548858D01*
X48438857Y12513143D01*
X48403142Y12441715D01*
X48403142Y12334572D01*
X48438857Y12263143D01*
X48474571Y12227429D01*
X48546000Y12191715D01*
X48831714Y12191715D01*
X48831714Y12941715D01*
X48581714Y12941715D01*
X48510285Y12906000D01*
X48474571Y12870286D01*
X48438857Y12798858D01*
X48438857Y12727429D01*
X48474571Y12656000D01*
X48510285Y12620286D01*
X48581714Y12584572D01*
X48831714Y12584572D01*
X48188857Y12941715D02*
X47760285Y12941715D01*
X47974571Y12191715D02*
X47974571Y12941715D01*
X49292428Y10356000D02*
X49363857Y10391715D01*
X49471000Y10391715D01*
X49578142Y10356000D01*
X49649571Y10284572D01*
X49685285Y10213143D01*
X49721000Y10070286D01*
X49721000Y9963143D01*
X49685285Y9820286D01*
X49649571Y9748858D01*
X49578142Y9677429D01*
X49471000Y9641715D01*
X49399571Y9641715D01*
X49292428Y9677429D01*
X49256714Y9713143D01*
X49256714Y9963143D01*
X49399571Y9963143D01*
X48935285Y9641715D02*
X48935285Y10391715D01*
X48506714Y9641715D01*
X48506714Y10391715D01*
X48149571Y9641715D02*
X48149571Y10391715D01*
X47971000Y10391715D01*
X47863857Y10356000D01*
X47792428Y10284572D01*
X47756714Y10213143D01*
X47721000Y10070286D01*
X47721000Y9963143D01*
X47756714Y9820286D01*
X47792428Y9748858D01*
X47863857Y9677429D01*
X47971000Y9641715D01*
X48149571Y9641715D01*
X2513857Y14745929D02*
X2406714Y14710215D01*
X2228142Y14710215D01*
X2156714Y14745929D01*
X2121000Y14781643D01*
X2085285Y14853072D01*
X2085285Y14924500D01*
X2121000Y14995929D01*
X2156714Y15031643D01*
X2228142Y15067358D01*
X2371000Y15103072D01*
X2442428Y15138786D01*
X2478142Y15174500D01*
X2513857Y15245929D01*
X2513857Y15317358D01*
X2478142Y15388786D01*
X2442428Y15424500D01*
X2371000Y15460215D01*
X2192428Y15460215D01*
X2085285Y15424500D01*
X1335285Y14781643D02*
X1371000Y14745929D01*
X1478142Y14710215D01*
X1549571Y14710215D01*
X1656714Y14745929D01*
X1728142Y14817358D01*
X1763857Y14888786D01*
X1799571Y15031643D01*
X1799571Y15138786D01*
X1763857Y15281643D01*
X1728142Y15353072D01*
X1656714Y15424500D01*
X1549571Y15460215D01*
X1478142Y15460215D01*
X1371000Y15424500D01*
X1335285Y15388786D01*
X656714Y14710215D02*
X1013857Y14710215D01*
X1013857Y15460215D01*
X2531714Y12127429D02*
X2424571Y12091715D01*
X2246000Y12091715D01*
X2174571Y12127429D01*
X2138857Y12163143D01*
X2103142Y12234572D01*
X2103142Y12306000D01*
X2138857Y12377429D01*
X2174571Y12413143D01*
X2246000Y12448858D01*
X2388857Y12484572D01*
X2460285Y12520286D01*
X2496000Y12556000D01*
X2531714Y12627429D01*
X2531714Y12698858D01*
X2496000Y12770286D01*
X2460285Y12806000D01*
X2388857Y12841715D01*
X2210285Y12841715D01*
X2103142Y12806000D01*
X1781714Y12091715D02*
X1781714Y12841715D01*
X1603142Y12841715D01*
X1496000Y12806000D01*
X1424571Y12734572D01*
X1388857Y12663143D01*
X1353142Y12520286D01*
X1353142Y12413143D01*
X1388857Y12270286D01*
X1424571Y12198858D01*
X1496000Y12127429D01*
X1603142Y12091715D01*
X1781714Y12091715D01*
X1067428Y12306000D02*
X710285Y12306000D01*
X1138857Y12091715D02*
X888857Y12841715D01*
X638857Y12091715D01*
X2588857Y9677429D02*
X2481714Y9641715D01*
X2303142Y9641715D01*
X2231714Y9677429D01*
X2196000Y9713143D01*
X2160285Y9784572D01*
X2160285Y9856000D01*
X2196000Y9927429D01*
X2231714Y9963143D01*
X2303142Y9998858D01*
X2446000Y10034572D01*
X2517428Y10070286D01*
X2553142Y10106000D01*
X2588857Y10177429D01*
X2588857Y10248858D01*
X2553142Y10320286D01*
X2517428Y10356000D01*
X2446000Y10391715D01*
X2267428Y10391715D01*
X2160285Y10356000D01*
X1838857Y9641715D02*
X1838857Y10391715D01*
X1588857Y9856000D01*
X1338857Y10391715D01*
X1338857Y9641715D01*
X731714Y10034572D02*
X624571Y9998858D01*
X588857Y9963143D01*
X553142Y9891715D01*
X553142Y9784572D01*
X588857Y9713143D01*
X624571Y9677429D01*
X696000Y9641715D01*
X981714Y9641715D01*
X981714Y10391715D01*
X731714Y10391715D01*
X660285Y10356000D01*
X624571Y10320286D01*
X588857Y10248858D01*
X588857Y10177429D01*
X624571Y10106000D01*
X660285Y10070286D01*
X731714Y10034572D01*
X981714Y10034572D01*
D11*
X49194404Y23295620D02*
X49194404Y24295620D01*
X48861071Y23581334D01*
X48527738Y24295620D01*
X48527738Y23295620D01*
X47718214Y23819429D02*
X48051547Y23819429D01*
X48051547Y23295620D02*
X48051547Y24295620D01*
X47575357Y24295620D01*
X47194404Y23295620D02*
X47194404Y24295620D01*
X46861071Y23581334D01*
X46527738Y24295620D01*
X46527738Y23295620D01*
X45289642Y23295620D02*
X45289642Y24295620D01*
X44956309Y23581334D01*
X44622976Y24295620D01*
X44622976Y23295620D01*
X44003928Y23295620D02*
X44099166Y23343239D01*
X44146785Y23390858D01*
X44194404Y23486096D01*
X44194404Y23771810D01*
X44146785Y23867048D01*
X44099166Y23914667D01*
X44003928Y23962286D01*
X43861071Y23962286D01*
X43765833Y23914667D01*
X43718214Y23867048D01*
X43670595Y23771810D01*
X43670595Y23486096D01*
X43718214Y23390858D01*
X43765833Y23343239D01*
X43861071Y23295620D01*
X44003928Y23295620D01*
X42813452Y23295620D02*
X42813452Y24295620D01*
X42813452Y23343239D02*
X42908690Y23295620D01*
X43099166Y23295620D01*
X43194404Y23343239D01*
X43242023Y23390858D01*
X43289642Y23486096D01*
X43289642Y23771810D01*
X43242023Y23867048D01*
X43194404Y23914667D01*
X43099166Y23962286D01*
X42908690Y23962286D01*
X42813452Y23914667D01*
X41908690Y23962286D02*
X41908690Y23295620D01*
X42337261Y23962286D02*
X42337261Y23438477D01*
X42289642Y23343239D01*
X42194404Y23295620D01*
X42051547Y23295620D01*
X41956309Y23343239D01*
X41908690Y23390858D01*
X41289642Y23295620D02*
X41384880Y23343239D01*
X41432500Y23438477D01*
X41432500Y24295620D01*
X40527738Y23343239D02*
X40622976Y23295620D01*
X40813452Y23295620D01*
X40908690Y23343239D01*
X40956309Y23438477D01*
X40956309Y23819429D01*
X40908690Y23914667D01*
X40813452Y23962286D01*
X40622976Y23962286D01*
X40527738Y23914667D01*
X40480119Y23819429D01*
X40480119Y23724191D01*
X40956309Y23628953D01*
X39337261Y23343239D02*
X39194404Y23295620D01*
X38956309Y23295620D01*
X38861071Y23343239D01*
X38813452Y23390858D01*
X38765833Y23486096D01*
X38765833Y23581334D01*
X38813452Y23676572D01*
X38861071Y23724191D01*
X38956309Y23771810D01*
X39146785Y23819429D01*
X39242023Y23867048D01*
X39289642Y23914667D01*
X39337261Y24009905D01*
X39337261Y24105143D01*
X39289642Y24200381D01*
X39242023Y24248000D01*
X39146785Y24295620D01*
X38908690Y24295620D01*
X38765833Y24248000D01*
X38337261Y23819429D02*
X38003928Y23819429D01*
X37861071Y23295620D02*
X38337261Y23295620D01*
X38337261Y24295620D01*
X37861071Y24295620D01*
X37432500Y23295620D02*
X37432500Y24295620D01*
X36861071Y23295620D01*
X36861071Y24295620D01*
X36194404Y24295620D02*
X36099166Y24295620D01*
X36003928Y24248000D01*
X35956309Y24200381D01*
X35908690Y24105143D01*
X35861071Y23914667D01*
X35861071Y23676572D01*
X35908690Y23486096D01*
X35956309Y23390858D01*
X36003928Y23343239D01*
X36099166Y23295620D01*
X36194404Y23295620D01*
X36289642Y23343239D01*
X36337261Y23390858D01*
X36384880Y23486096D01*
X36432500Y23676572D01*
X36432500Y23914667D01*
X36384880Y24105143D01*
X36337261Y24200381D01*
X36289642Y24248000D01*
X36194404Y24295620D01*
X35527738Y24295620D02*
X34908690Y24295620D01*
X35242023Y23914667D01*
X35099166Y23914667D01*
X35003928Y23867048D01*
X34956309Y23819429D01*
X34908690Y23724191D01*
X34908690Y23486096D01*
X34956309Y23390858D01*
X35003928Y23343239D01*
X35099166Y23295620D01*
X35384880Y23295620D01*
X35480119Y23343239D01*
X35527738Y23390858D01*
X33956309Y23295620D02*
X34527738Y23295620D01*
X34242023Y23295620D02*
X34242023Y24295620D01*
X34337261Y24152762D01*
X34432500Y24057524D01*
X34527738Y24009905D01*
X33622976Y24295620D02*
X33003928Y24295620D01*
X33337261Y23914667D01*
X33194404Y23914667D01*
X33099166Y23867048D01*
X33051547Y23819429D01*
X33003928Y23724191D01*
X33003928Y23486096D01*
X33051547Y23390858D01*
X33099166Y23343239D01*
X33194404Y23295620D01*
X33480119Y23295620D01*
X33575357Y23343239D01*
X33622976Y23390858D01*
X31908690Y23962286D02*
X31670595Y23295620D01*
X31432500Y23962286D01*
X30861071Y24295620D02*
X30765833Y24295620D01*
X30670595Y24248000D01*
X30622976Y24200381D01*
X30575357Y24105143D01*
X30527738Y23914667D01*
X30527738Y23676572D01*
X30575357Y23486096D01*
X30622976Y23390858D01*
X30670595Y23343239D01*
X30765833Y23295620D01*
X30861071Y23295620D01*
X30956309Y23343239D01*
X31003928Y23390858D01*
X31051547Y23486096D01*
X31099166Y23676572D01*
X31099166Y23914667D01*
X31051547Y24105143D01*
X31003928Y24200381D01*
X30956309Y24248000D01*
X30861071Y24295620D01*
X30099166Y23390858D02*
X30051547Y23343239D01*
X30099166Y23295620D01*
X30146785Y23343239D01*
X30099166Y23390858D01*
X30099166Y23295620D01*
X29099166Y23295620D02*
X29670595Y23295620D01*
X29384880Y23295620D02*
X29384880Y24295620D01*
X29480119Y24152762D01*
X29575357Y24057524D01*
X29670595Y24009905D01*
X49242023Y22550381D02*
X49194404Y22598000D01*
X49099166Y22645620D01*
X48861071Y22645620D01*
X48765833Y22598000D01*
X48718214Y22550381D01*
X48670595Y22455143D01*
X48670595Y22359905D01*
X48718214Y22217048D01*
X49289642Y21645620D01*
X48670595Y21645620D01*
X48051547Y22645620D02*
X47956309Y22645620D01*
X47861071Y22598000D01*
X47813452Y22550381D01*
X47765833Y22455143D01*
X47718214Y22264667D01*
X47718214Y22026572D01*
X47765833Y21836096D01*
X47813452Y21740858D01*
X47861071Y21693239D01*
X47956309Y21645620D01*
X48051547Y21645620D01*
X48146785Y21693239D01*
X48194404Y21740858D01*
X48242023Y21836096D01*
X48289642Y22026572D01*
X48289642Y22264667D01*
X48242023Y22455143D01*
X48194404Y22550381D01*
X48146785Y22598000D01*
X48051547Y22645620D01*
X47337261Y22550381D02*
X47289642Y22598000D01*
X47194404Y22645620D01*
X46956309Y22645620D01*
X46861071Y22598000D01*
X46813452Y22550381D01*
X46765833Y22455143D01*
X46765833Y22359905D01*
X46813452Y22217048D01*
X47384880Y21645620D01*
X46765833Y21645620D01*
X45813452Y21645620D02*
X46384880Y21645620D01*
X46099166Y21645620D02*
X46099166Y22645620D01*
X46194404Y22502762D01*
X46289642Y22407524D01*
X46384880Y22359905D01*
X45384880Y22026572D02*
X44622976Y22026572D01*
X43956309Y22645620D02*
X43861071Y22645620D01*
X43765833Y22598000D01*
X43718214Y22550381D01*
X43670595Y22455143D01*
X43622976Y22264667D01*
X43622976Y22026572D01*
X43670595Y21836096D01*
X43718214Y21740858D01*
X43765833Y21693239D01*
X43861071Y21645620D01*
X43956309Y21645620D01*
X44051547Y21693239D01*
X44099166Y21740858D01*
X44146785Y21836096D01*
X44194404Y22026572D01*
X44194404Y22264667D01*
X44146785Y22455143D01*
X44099166Y22550381D01*
X44051547Y22598000D01*
X43956309Y22645620D01*
X42718214Y22645620D02*
X43194404Y22645620D01*
X43242023Y22169429D01*
X43194404Y22217048D01*
X43099166Y22264667D01*
X42861071Y22264667D01*
X42765833Y22217048D01*
X42718214Y22169429D01*
X42670595Y22074191D01*
X42670595Y21836096D01*
X42718214Y21740858D01*
X42765833Y21693239D01*
X42861071Y21645620D01*
X43099166Y21645620D01*
X43194404Y21693239D01*
X43242023Y21740858D01*
X42242023Y22026572D02*
X41480119Y22026572D01*
X40813452Y22645620D02*
X40718214Y22645620D01*
X40622976Y22598000D01*
X40575357Y22550381D01*
X40527738Y22455143D01*
X40480119Y22264667D01*
X40480119Y22026572D01*
X40527738Y21836096D01*
X40575357Y21740858D01*
X40622976Y21693239D01*
X40718214Y21645620D01*
X40813452Y21645620D01*
X40908690Y21693239D01*
X40956309Y21740858D01*
X41003928Y21836096D01*
X41051547Y22026572D01*
X41051547Y22264667D01*
X41003928Y22455143D01*
X40956309Y22550381D01*
X40908690Y22598000D01*
X40813452Y22645620D01*
X39908690Y22217048D02*
X40003928Y22264667D01*
X40051547Y22312286D01*
X40099166Y22407524D01*
X40099166Y22455143D01*
X40051547Y22550381D01*
X40003928Y22598000D01*
X39908690Y22645620D01*
X39718214Y22645620D01*
X39622976Y22598000D01*
X39575357Y22550381D01*
X39527738Y22455143D01*
X39527738Y22407524D01*
X39575357Y22312286D01*
X39622976Y22264667D01*
X39718214Y22217048D01*
X39908690Y22217048D01*
X40003928Y22169429D01*
X40051547Y22121810D01*
X40099166Y22026572D01*
X40099166Y21836096D01*
X40051547Y21740858D01*
X40003928Y21693239D01*
X39908690Y21645620D01*
X39718214Y21645620D01*
X39622976Y21693239D01*
X39575357Y21740858D01*
X39527738Y21836096D01*
X39527738Y22026572D01*
X39575357Y22121810D01*
X39622976Y22169429D01*
X39718214Y22217048D01*
X49242023Y20043239D02*
X49099166Y19995620D01*
X48861071Y19995620D01*
X48765833Y20043239D01*
X48718214Y20090858D01*
X48670595Y20186096D01*
X48670595Y20281334D01*
X48718214Y20376572D01*
X48765833Y20424191D01*
X48861071Y20471810D01*
X49051547Y20519429D01*
X49146785Y20567048D01*
X49194404Y20614667D01*
X49242023Y20709905D01*
X49242023Y20805143D01*
X49194404Y20900381D01*
X49146785Y20948000D01*
X49051547Y20995620D01*
X48813452Y20995620D01*
X48670595Y20948000D01*
X47861071Y20043239D02*
X47956309Y19995620D01*
X48146785Y19995620D01*
X48242023Y20043239D01*
X48289642Y20138477D01*
X48289642Y20519429D01*
X48242023Y20614667D01*
X48146785Y20662286D01*
X47956309Y20662286D01*
X47861071Y20614667D01*
X47813452Y20519429D01*
X47813452Y20424191D01*
X48289642Y20328953D01*
X47384880Y20662286D02*
X47384880Y19995620D01*
X47384880Y20567048D02*
X47337261Y20614667D01*
X47242023Y20662286D01*
X47099166Y20662286D01*
X47003928Y20614667D01*
X46956309Y20519429D01*
X46956309Y19995620D01*
X46575357Y20662286D02*
X46384880Y19995620D01*
X46194404Y20471810D01*
X46003928Y19995620D01*
X45813452Y20662286D01*
X45432500Y19995620D02*
X45432500Y20662286D01*
X45432500Y20995620D02*
X45480119Y20948000D01*
X45432500Y20900381D01*
X45384880Y20948000D01*
X45432500Y20995620D01*
X45432500Y20900381D01*
X45051547Y20662286D02*
X44527738Y20662286D01*
X45051547Y19995620D01*
X44527738Y19995620D01*
X43765833Y20043239D02*
X43861071Y19995620D01*
X44051547Y19995620D01*
X44146785Y20043239D01*
X44194404Y20138477D01*
X44194404Y20519429D01*
X44146785Y20614667D01*
X44051547Y20662286D01*
X43861071Y20662286D01*
X43765833Y20614667D01*
X43718214Y20519429D01*
X43718214Y20424191D01*
X44194404Y20328953D01*
M02*
